  0
SECTION
  2
HEADER
  9
$ACADVER
  1
AC1009
  0
ENDSEC
  0
SECTION
  2
ENTITIES
  0
POLYLINE
  5
90
  8
Layer_0
  62
0
  70
1
  66
1
  10
0
  20
0
  30
0
  0
VERTEX
  5
90
  8
Layer_0
  10
638.53882
  20
467.45093
  0
VERTEX
  5
91
  8
Layer_0
  10
638.53882
  20
466.45093
  0
VERTEX
  5
92
  8
Layer_0
  10
641.53882
  20
466.45093
  0
VERTEX
  5
93
  8
Layer_0
  10
641.53882
  20
467.45093
  0
VERTEX
  5
94
  8
Layer_0
  10
646.06677
  20
467.45093
  0
VERTEX
  5
95
  8
Layer_0
  10
646.06677
  20
471.95496
  0
VERTEX
  5
96
  8
Layer_0
  10
641.53882
  20
471.95496
  0
VERTEX
  5
97
  8
Layer_0
  10
641.53882
  20
472.95496
  0
VERTEX
  5
98
  8
Layer_0
  10
638.53882
  20
472.95496
  0
VERTEX
  5
99
  8
Layer_0
  10
638.53882
  20
471.95496
  0
VERTEX
  5
9a
  8
Layer_0
  10
634.0188
  20
471.95496
  0
VERTEX
  5
9b
  8
Layer_0
  10
634.0188
  20
467.45093
  0
VERTEX
  5
9c
  8
Layer_0
  10
638.53882
  20
467.45093
  0
SEQEND
  0
POLYLINE
  5
9e
  8
Layer_0
  62
0
  70
1
  66
1
  10
0
  20
0
  30
0
  0
VERTEX
  5
9e
  8
Layer_0
  10
638.31885
  20
585.45087
  0
VERTEX
  5
9f
  8
Layer_0
  10
638.31885
  20
584.45087
  0
VERTEX
  5
a0
  8
Layer_0
  10
641.31885
  20
584.45087
  0
VERTEX
  5
a1
  8
Layer_0
  10
641.31885
  20
585.45087
  0
VERTEX
  5
a2
  8
Layer_0
  10
645.8468
  20
585.45087
  0
VERTEX
  5
a3
  8
Layer_0
  10
645.8468
  20
589.95483
  0
VERTEX
  5
a4
  8
Layer_0
  10
641.31885
  20
589.95483
  0
VERTEX
  5
a5
  8
Layer_0
  10
641.31885
  20
590.95483
  0
VERTEX
  5
a6
  8
Layer_0
  10
638.31885
  20
590.95483
  0
VERTEX
  5
a7
  8
Layer_0
  10
638.31885
  20
589.95483
  0
VERTEX
  5
a8
  8
Layer_0
  10
633.79883
  20
589.95483
  0
VERTEX
  5
a9
  8
Layer_0
  10
633.79883
  20
585.45087
  0
VERTEX
  5
aa
  8
Layer_0
  10
638.31885
  20
585.45087
  0
SEQEND
  0
POLYLINE
  5
ac
  8
Layer_0
  62
0
  70
1
  66
1
  10
0
  20
0
  30
0
  0
VERTEX
  5
ac
  8
Layer_0
  10
646.48999
  20
383.42291
  0
VERTEX
  5
ad
  8
Layer_0
  10
646.94348
  20
383.46863
  0
VERTEX
  5
ae
  8
Layer_0
  10
647.36584
  20
383.59973
  0
VERTEX
  5
af
  8
Layer_0
  10
647.74805
  20
383.80719
  0
VERTEX
  5
b0
  8
Layer_0
  10
648.08099
  20
384.08191
  0
VERTEX
  5
b1
  8
Layer_0
  10
648.35571
  20
384.41492
  0
VERTEX
  5
b2
  8
Layer_0
  10
648.56317
  20
384.79712
  0
VERTEX
  5
b3
  8
Layer_0
  10
648.69427
  20
385.21948
  0
VERTEX
  5
b4
  8
Layer_0
  10
648.73999
  20
385.67291
  0
VERTEX
  5
b5
  8
Layer_0
  10
648.69427
  20
386.12634
  0
VERTEX
  5
b6
  8
Layer_0
  10
648.56317
  20
386.54871
  0
VERTEX
  5
b7
  8
Layer_0
  10
648.35571
  20
386.93091
  0
VERTEX
  5
b8
  8
Layer_0
  10
648.08099
  20
387.26392
  0
VERTEX
  5
b9
  8
Layer_0
  10
647.74805
  20
387.53864
  0
VERTEX
  5
ba
  8
Layer_0
  10
647.36584
  20
387.74609
  0
VERTEX
  5
bb
  8
Layer_0
  10
646.94348
  20
387.8772
  0
VERTEX
  5
bc
  8
Layer_0
  10
646.48999
  20
387.92291
  0
VERTEX
  5
bd
  8
Layer_0
  10
646.0365
  20
387.8772
  0
VERTEX
  5
be
  8
Layer_0
  10
645.61414
  20
387.74609
  0
VERTEX
  5
bf
  8
Layer_0
  10
645.23193
  20
387.53864
  0
VERTEX
  5
c0
  8
Layer_0
  10
644.89899
  20
387.26392
  0
VERTEX
  5
c1
  8
Layer_0
  10
644.62427
  20
386.93091
  0
VERTEX
  5
c2
  8
Layer_0
  10
644.41681
  20
386.54871
  0
VERTEX
  5
c3
  8
Layer_0
  10
644.28571
  20
386.12634
  0
VERTEX
  5
c4
  8
Layer_0
  10
644.23999
  20
385.67291
  0
VERTEX
  5
c5
  8
Layer_0
  10
644.28571
  20
385.21948
  0
VERTEX
  5
c6
  8
Layer_0
  10
644.41681
  20
384.79712
  0
VERTEX
  5
c7
  8
Layer_0
  10
644.62427
  20
384.41492
  0
VERTEX
  5
c8
  8
Layer_0
  10
644.89899
  20
384.08191
  0
VERTEX
  5
c9
  8
Layer_0
  10
645.23193
  20
383.80719
  0
VERTEX
  5
ca
  8
Layer_0
  10
645.61414
  20
383.59973
  0
VERTEX
  5
cb
  8
Layer_0
  10
646.0365
  20
383.46863
  0
VERTEX
  5
cc
  8
Layer_0
  10
646.48999
  20
383.42291
  0
SEQEND
  0
POLYLINE
  5
ce
  8
Layer_0
  62
0
  70
1
  66
1
  10
0
  20
0
  30
0
  0
VERTEX
  5
ce
  8
Layer_0
  10
646.48993
  20
275.42291
  0
VERTEX
  5
cf
  8
Layer_0
  10
646.94336
  20
275.46863
  0
VERTEX
  5
d0
  8
Layer_0
  10
647.36572
  20
275.59973
  0
VERTEX
  5
d1
  8
Layer_0
  10
647.74792
  20
275.80719
  0
VERTEX
  5
d2
  8
Layer_0
  10
648.08093
  20
276.08191
  0
VERTEX
  5
d3
  8
Layer_0
  10
648.35565
  20
276.41492
  0
VERTEX
  5
d4
  8
Layer_0
  10
648.56311
  20
276.79712
  0
VERTEX
  5
d5
  8
Layer_0
  10
648.69421
  20
277.21948
  0
VERTEX
  5
d6
  8
Layer_0
  10
648.73993
  20
277.67291
  0
VERTEX
  5
d7
  8
Layer_0
  10
648.69421
  20
278.12634
  0
VERTEX
  5
d8
  8
Layer_0
  10
648.56311
  20
278.54871
  0
VERTEX
  5
d9
  8
Layer_0
  10
648.35565
  20
278.93091
  0
VERTEX
  5
da
  8
Layer_0
  10
648.08093
  20
279.26392
  0
VERTEX
  5
db
  8
Layer_0
  10
647.74792
  20
279.53864
  0
VERTEX
  5
dc
  8
Layer_0
  10
647.36572
  20
279.74609
  0
VERTEX
  5
dd
  8
Layer_0
  10
646.94336
  20
279.8772
  0
VERTEX
  5
de
  8
Layer_0
  10
646.48993
  20
279.92291
  0
VERTEX
  5
df
  8
Layer_0
  10
646.0365
  20
279.8772
  0
VERTEX
  5
e0
  8
Layer_0
  10
645.61414
  20
279.74609
  0
VERTEX
  5
e1
  8
Layer_0
  10
645.23193
  20
279.53864
  0
VERTEX
  5
e2
  8
Layer_0
  10
644.89893
  20
279.26392
  0
VERTEX
  5
e3
  8
Layer_0
  10
644.62421
  20
278.93091
  0
VERTEX
  5
e4
  8
Layer_0
  10
644.41675
  20
278.54871
  0
VERTEX
  5
e5
  8
Layer_0
  10
644.28564
  20
278.12634
  0
VERTEX
  5
e6
  8
Layer_0
  10
644.23993
  20
277.67291
  0
VERTEX
  5
e7
  8
Layer_0
  10
644.28564
  20
277.21948
  0
VERTEX
  5
e8
  8
Layer_0
  10
644.41675
  20
276.79712
  0
VERTEX
  5
e9
  8
Layer_0
  10
644.62421
  20
276.41492
  0
VERTEX
  5
ea
  8
Layer_0
  10
644.89893
  20
276.08191
  0
VERTEX
  5
eb
  8
Layer_0
  10
645.23193
  20
275.80719
  0
VERTEX
  5
ec
  8
Layer_0
  10
645.61414
  20
275.59973
  0
VERTEX
  5
ed
  8
Layer_0
  10
646.0365
  20
275.46863
  0
VERTEX
  5
ee
  8
Layer_0
  10
646.48993
  20
275.42291
  0
SEQEND
  0
POLYLINE
  5
f0
  8
Layer_0
  62
0
  70
1
  66
1
  10
0
  20
0
  30
0
  0
VERTEX
  5
f0
  8
Layer_0
  10
645.91064
  20
617.58826
  0
VERTEX
  5
f1
  8
Layer_0
  10
645.91064
  20
439.78827
  0
VERTEX
  5
f2
  8
Layer_0
  10
487.16064
  20
439.78827
  0
VERTEX
  5
f3
  8
Layer_0
  10
486.58398
  20
439.80609
  0
VERTEX
  5
f4
  8
Layer_0
  10
486.04443
  20
439.85651
  0
VERTEX
  5
f5
  8
Layer_0
  10
485.54211
  20
439.93481
  0
VERTEX
  5
f6
  8
Layer_0
  10
485.07703
  20
440.03632
  0
VERTEX
  5
f7
  8
Layer_0
  10
484.64917
  20
440.15649
  0
VERTEX
  5
f8
  8
Layer_0
  10
484.25842
  20
440.29059
  0
VERTEX
  5
f9
  8
Layer_0
  10
483.90503
  20
440.43396
  0
VERTEX
  5
fa
  8
Layer_0
  10
483.58875
  20
440.58203
  0
VERTEX
  5
fb
  8
Layer_0
  10
483.30969
  20
440.7301
  0
VERTEX
  5
fc
  8
Layer_0
  10
483.06787
  20
440.87347
  0
VERTEX
  5
fd
  8
Layer_0
  10
482.86328
  20
441.00757
  0
VERTEX
  5
fe
  8
Layer_0
  10
482.6958
  20
441.12769
  0
VERTEX
  5
ff
  8
Layer_0
  10
482.56555
  20
441.22925
  0
VERTEX
  5
100
  8
Layer_0
  10
482.47253
  20
441.30756
  0
VERTEX
  5
101
  8
Layer_0
  10
482.41675
  20
441.35791
  0
VERTEX
  5
102
  8
Layer_0
  10
482.39813
  20
441.37573
  0
VERTEX
  5
103
  8
Layer_0
  10
482.38031
  20
441.39441
  0
VERTEX
  5
104
  8
Layer_0
  10
482.3299
  20
441.4502
  0
VERTEX
  5
105
  8
Layer_0
  10
482.25159
  20
441.54321
  0
VERTEX
  5
106
  8
Layer_0
  10
482.15009
  20
441.67346
  0
VERTEX
  5
107
  8
Layer_0
  10
482.02991
  20
441.84082
  0
VERTEX
  5
108
  8
Layer_0
  10
481.89581
  20
442.04553
  0
VERTEX
  5
109
  8
Layer_0
  10
481.75244
  20
442.28735
  0
VERTEX
  5
10a
  8
Layer_0
  10
481.60437
  20
442.56641
  0
VERTEX
  5
10b
  8
Layer_0
  10
481.4563
  20
442.88269
  0
VERTEX
  5
10c
  8
Layer_0
  10
481.31299
  20
443.23608
  0
VERTEX
  5
10d
  8
Layer_0
  10
481.17883
  20
443.62683
  0
VERTEX
  5
10e
  8
Layer_0
  10
481.05872
  20
444.05469
  0
VERTEX
  5
10f
  8
Layer_0
  10
480.95721
  20
444.51978
  0
VERTEX
  5
110
  8
Layer_0
  10
480.87891
  20
445.02209
  0
VERTEX
  5
111
  8
Layer_0
  10
480.82849
  20
445.56152
  0
VERTEX
  5
112
  8
Layer_0
  10
480.81067
  20
446.13831
  0
VERTEX
  5
113
  8
Layer_0
  10
480.81067
  20
452.48828
  0
VERTEX
  5
114
  8
Layer_0
  10
480.82849
  20
453.065
  0
VERTEX
  5
115
  8
Layer_0
  10
480.87891
  20
453.60449
  0
VERTEX
  5
116
  8
Layer_0
  10
480.95721
  20
454.10681
  0
VERTEX
  5
117
  8
Layer_0
  10
481.05872
  20
454.5719
  0
VERTEX
  5
118
  8
Layer_0
  10
481.17883
  20
454.99976
  0
VERTEX
  5
119
  8
Layer_0
  10
481.31299
  20
455.39038
  0
VERTEX
  5
11a
  8
Layer_0
  10
481.4563
  20
455.7439
  0
VERTEX
  5
11b
  8
Layer_0
  10
481.60437
  20
456.06018
  0
VERTEX
  5
11c
  8
Layer_0
  10
481.75244
  20
456.33923
  0
VERTEX
  5
11d
  8
Layer_0
  10
481.89581
  20
456.58105
  0
VERTEX
  5
11e
  8
Layer_0
  10
482.02991
  20
456.78564
  0
VERTEX
  5
11f
  8
Layer_0
  10
482.15009
  20
456.95313
  0
VERTEX
  5
120
  8
Layer_0
  10
482.25159
  20
457.08337
  0
VERTEX
  5
121
  8
Layer_0
  10
482.3299
  20
457.17639
  0
VERTEX
  5
122
  8
Layer_0
  10
482.38031
  20
457.23218
  0
VERTEX
  5
123
  8
Layer_0
  10
482.39813
  20
457.25073
  0
VERTEX
  5
124
  8
Layer_0
  10
482.41675
  20
457.26855
  0
VERTEX
  5
125
  8
Layer_0
  10
482.47253
  20
457.31897
  0
VERTEX
  5
126
  8
Layer_0
  10
482.56555
  20
457.39722
  0
VERTEX
  5
127
  8
Layer_0
  10
482.6958
  20
457.49878
  0
VERTEX
  5
128
  8
Layer_0
  10
482.86328
  20
457.61896
  0
VERTEX
  5
129
  8
Layer_0
  10
483.06787
  20
457.75305
  0
VERTEX
  5
12a
  8
Layer_0
  10
483.30969
  20
457.89648
  0
VERTEX
  5
12b
  8
Layer_0
  10
483.58875
  20
458.04449
  0
VERTEX
  5
12c
  8
Layer_0
  10
483.90503
  20
458.1925
  0
VERTEX
  5
12d
  8
Layer_0
  10
484.25842
  20
458.33594
  0
VERTEX
  5
12e
  8
Layer_0
  10
484.64917
  20
458.47009
  0
VERTEX
  5
12f
  8
Layer_0
  10
485.07703
  20
458.59021
  0
VERTEX
  5
130
  8
Layer_0
  10
485.54211
  20
458.69177
  0
VERTEX
  5
131
  8
Layer_0
  10
486.04443
  20
458.77002
  0
VERTEX
  5
132
  8
Layer_0
  10
486.58398
  20
458.82043
  0
VERTEX
  5
133
  8
Layer_0
  10
487.16064
  20
458.83826
  0
VERTEX
  5
134
  8
Layer_0
  10
609.39813
  20
458.83826
  0
VERTEX
  5
135
  8
Layer_0
  10
610.27209
  20
458.8739
  0
VERTEX
  5
136
  8
Layer_0
  10
611.10657
  20
458.97467
  0
VERTEX
  5
137
  8
Layer_0
  10
611.89917
  20
459.13123
  0
VERTEX
  5
138
  8
Layer_0
  10
612.64758
  20
459.33435
  0
VERTEX
  5
139
  8
Layer_0
  10
613.34943
  20
459.57465
  0
VERTEX
  5
13a
  8
Layer_0
  10
614.0025
  20
459.84283
  0
VERTEX
  5
13b
  8
Layer_0
  10
614.60443
  20
460.12964
  0
VERTEX
  5
13c
  8
Layer_0
  10
615.15283
  20
460.42578
  0
VERTEX
  5
13d
  8
Layer_0
  10
615.64539
  20
460.72186
  0
VERTEX
  5
13e
  8
Layer_0
  10
616.0799
  20
461.00867
  0
VERTEX
  5
13f
  8
Layer_0
  10
616.45392
  20
461.27686
  0
VERTEX
  5
140
  8
Layer_0
  10
616.76514
  20
461.51715
  0
VERTEX
  5
141
  8
Layer_0
  10
617.01123
  20
461.72021
  0
VERTEX
  5
142
  8
Layer_0
  10
617.18994
  20
461.87683
  0
VERTEX
  5
143
  8
Layer_0
  10
617.29883
  20
461.9776
  0
VERTEX
  5
144
  8
Layer_0
  10
617.33563
  20
462.01324
  0
VERTEX
  5
145
  8
Layer_0
  10
617.37128
  20
462.05005
  0
VERTEX
  5
146
  8
Layer_0
  10
617.47205
  20
462.15894
  0
VERTEX
  5
147
  8
Layer_0
  10
617.62866
  20
462.33765
  0
VERTEX
  5
148
  8
Layer_0
  10
617.83173
  20
462.58374
  0
VERTEX
  5
149
  8
Layer_0
  10
618.07202
  20
462.89496
  0
VERTEX
  5
14a
  8
Layer_0
  10
618.34021
  20
463.26898
  0
VERTEX
  5
14b
  8
Layer_0
  10
618.62701
  20
463.70343
  0
VERTEX
  5
14c
  8
Layer_0
  10
618.9231
  20
464.19604
  0
VERTEX
  5
14d
  8
Layer_0
  10
619.21924
  20
464.74445
  0
VERTEX
  5
14e
  8
Layer_0
  10
619.50604
  20
465.34637
  0
VERTEX
  5
14f
  8
Layer_0
  10
619.77423
  20
465.99945
  0
VERTEX
  5
150
  8
Layer_0
  10
620.01453
  20
466.70129
  0
VERTEX
  5
151
  8
Layer_0
  10
620.21765
  20
467.44971
  0
VERTEX
  5
152
  8
Layer_0
  10
620.37421
  20
468.24231
  0
VERTEX
  5
153
  8
Layer_0
  10
620.47498
  20
469.07678
  0
VERTEX
  5
154
  8
Layer_0
  10
620.51062
  20
469.95074
  0
VERTEX
  5
155
  8
Layer_0
  10
620.51062
  20
587.42572
  0
VERTEX
  5
156
  8
Layer_0
  10
620.47498
  20
588.29968
  0
VERTEX
  5
157
  8
Layer_0
  10
620.37427
  20
589.13416
  0
VERTEX
  5
158
  8
Layer_0
  10
620.21765
  20
589.92676
  0
VERTEX
  5
159
  8
Layer_0
  10
620.01453
  20
590.67517
  0
VERTEX
  5
15a
  8
Layer_0
  10
619.77429
  20
591.37701
  0
VERTEX
  5
15b
  8
Layer_0
  10
619.5061
  20
592.03009
  0
VERTEX
  5
15c
  8
Layer_0
  10
619.21924
  20
592.63202
  0
VERTEX
  5
15d
  8
Layer_0
  10
618.92316
  20
593.18042
  0
VERTEX
  5
15e
  8
Layer_0
  10
618.62708
  20
593.67303
  0
VERTEX
  5
15f
  8
Layer_0
  10
618.34021
  20
594.10748
  0
VERTEX
  5
160
  8
Layer_0
  10
618.07202
  20
594.48151
  0
VERTEX
  5
161
  8
Layer_0
  10
617.83173
  20
594.79272
  0
VERTEX
  5
162
  8
Layer_0
  10
617.62866
  20
595.03882
  0
VERTEX
  5
163
  8
Layer_0
  10
617.47205
  20
595.21747
  0
VERTEX
  5
164
  8
Layer_0
  10
617.37128
  20
595.32642
  0
VERTEX
  5
165
  8
Layer_0
  10
617.33563
  20
595.36322
  0
VERTEX
  5
166
  8
Layer_0
  10
617.29883
  20
595.39886
  0
VERTEX
  5
167
  8
Layer_0
  10
617.18994
  20
595.49963
  0
VERTEX
  5
168
  8
Layer_0
  10
617.01123
  20
595.65625
  0
VERTEX
  5
169
  8
Layer_0
  10
616.76514
  20
595.85931
  0
VERTEX
  5
16a
  8
Layer_0
  10
616.45392
  20
596.09961
  0
VERTEX
  5
16b
  8
Layer_0
  10
616.0799
  20
596.3678
  0
VERTEX
  5
16c
  8
Layer_0
  10
615.64539
  20
596.6546
  0
VERTEX
  5
16d
  8
Layer_0
  10
615.15283
  20
596.95068
  0
VERTEX
  5
16e
  8
Layer_0
  10
614.60443
  20
597.24683
  0
VERTEX
  5
16f
  8
Layer_0
  10
614.0025
  20
597.53363
  0
VERTEX
  5
170
  8
Layer_0
  10
613.34943
  20
597.80182
  0
VERTEX
  5
171
  8
Layer_0
  10
612.64758
  20
598.04211
  0
VERTEX
  5
172
  8
Layer_0
  10
611.89917
  20
598.24518
  0
VERTEX
  5
173
  8
Layer_0
  10
611.10657
  20
598.40179
  0
VERTEX
  5
174
  8
Layer_0
  10
610.27209
  20
598.50256
  0
VERTEX
  5
175
  8
Layer_0
  10
609.39813
  20
598.53821
  0
VERTEX
  5
176
  8
Layer_0
  10
487.16064
  20
598.53821
  0
VERTEX
  5
177
  8
Layer_0
  10
486.58398
  20
598.55603
  0
VERTEX
  5
178
  8
Layer_0
  10
486.04443
  20
598.60645
  0
VERTEX
  5
179
  8
Layer_0
  10
485.54211
  20
598.68469
  0
VERTEX
  5
17a
  8
Layer_0
  10
485.07703
  20
598.78625
  0
VERTEX
  5
17b
  8
Layer_0
  10
484.64917
  20
598.90643
  0
VERTEX
  5
17c
  8
Layer_0
  10
484.25842
  20
599.04053
  0
VERTEX
  5
17d
  8
Layer_0
  10
483.90503
  20
599.1839
  0
VERTEX
  5
17e
  8
Layer_0
  10
483.58875
  20
599.33197
  0
VERTEX
  5
17f
  8
Layer_0
  10
483.30969
  20
599.48004
  0
VERTEX
  5
180
  8
Layer_0
  10
483.06787
  20
599.62341
  0
VERTEX
  5
181
  8
Layer_0
  10
482.86328
  20
599.75751
  0
VERTEX
  5
182
  8
Layer_0
  10
482.69586
  20
599.87769
  0
VERTEX
  5
183
  8
Layer_0
  10
482.56567
  20
599.97925
  0
VERTEX
  5
184
  8
Layer_0
  10
482.4726
  20
600.0575
  0
VERTEX
  5
185
  8
Layer_0
  10
482.41681
  20
600.10791
  0
VERTEX
  5
186
  8
Layer_0
  10
482.39819
  20
600.12573
  0
VERTEX
  5
187
  8
Layer_0
  10
482.38037
  20
600.14429
  0
VERTEX
  5
188
  8
Layer_0
  10
482.32996
  20
600.20013
  0
VERTEX
  5
189
  8
Layer_0
  10
482.25165
  20
600.29315
  0
VERTEX
  5
18a
  8
Layer_0
  10
482.15015
  20
600.42334
  0
VERTEX
  5
18b
  8
Layer_0
  10
482.03003
  20
600.59082
  0
VERTEX
  5
18c
  8
Layer_0
  10
481.89587
  20
600.79541
  0
VERTEX
  5
18d
  8
Layer_0
  10
481.75244
  20
601.03729
  0
VERTEX
  5
18e
  8
Layer_0
  10
481.60443
  20
601.31635
  0
VERTEX
  5
18f
  8
Layer_0
  10
481.45642
  20
601.63257
  0
VERTEX
  5
190
  8
Layer_0
  10
481.31299
  20
601.98608
  0
VERTEX
  5
191
  8
Layer_0
  10
481.17883
  20
602.37671
  0
VERTEX
  5
192
  8
Layer_0
  10
481.05872
  20
602.80463
  0
VERTEX
  5
193
  8
Layer_0
  10
480.95721
  20
603.26971
  0
VERTEX
  5
194
  8
Layer_0
  10
480.87891
  20
603.77203
  0
VERTEX
  5
195
  8
Layer_0
  10
480.82849
  20
604.31152
  0
VERTEX
  5
196
  8
Layer_0
  10
480.81067
  20
604.88824
  0
VERTEX
  5
197
  8
Layer_0
  10
480.81067
  20
617.58826
  0
VERTEX
  5
198
  8
Layer_0
  10
645.91064
  20
617.58826
  0
SEQEND
  0
POLYLINE
  5
19a
  8
Layer_0
  62
0
  70
1
  66
1
  10
0
  20
0
  30
0
  0
VERTEX
  5
19a
  8
Layer_0
  10
622.67596
  20
609.98895
  0
VERTEX
  5
19b
  8
Layer_0
  10
623.67596
  20
609.98895
  0
VERTEX
  5
19c
  8
Layer_0
  10
623.67596
  20
612.98895
  0
VERTEX
  5
19d
  8
Layer_0
  10
622.67596
  20
612.98895
  0
VERTEX
  5
19e
  8
Layer_0
  10
622.67596
  20
617.51691
  0
VERTEX
  5
19f
  8
Layer_0
  10
618.172
  20
617.51691
  0
VERTEX
  5
1a0
  8
Layer_0
  10
618.172
  20
612.98895
  0
VERTEX
  5
1a1
  8
Layer_0
  10
617.172
  20
612.98895
  0
VERTEX
  5
1a2
  8
Layer_0
  10
617.172
  20
609.98895
  0
VERTEX
  5
1a3
  8
Layer_0
  10
618.172
  20
609.98895
  0
VERTEX
  5
1a4
  8
Layer_0
  10
618.172
  20
605.46893
  0
VERTEX
  5
1a5
  8
Layer_0
  10
622.67596
  20
605.46893
  0
VERTEX
  5
1a6
  8
Layer_0
  10
622.67596
  20
609.98895
  0
SEQEND
  0
POLYLINE
  5
1a8
  8
Layer_0
  62
0
  70
1
  66
1
  10
0
  20
0
  30
0
  0
VERTEX
  5
1a8
  8
Layer_0
  10
504.67596
  20
609.76898
  0
VERTEX
  5
1a9
  8
Layer_0
  10
505.67596
  20
609.76898
  0
VERTEX
  5
1aa
  8
Layer_0
  10
505.67596
  20
612.76898
  0
VERTEX
  5
1ab
  8
Layer_0
  10
504.67596
  20
612.76898
  0
VERTEX
  5
1ac
  8
Layer_0
  10
504.67596
  20
617.29694
  0
VERTEX
  5
1ad
  8
Layer_0
  10
500.172
  20
617.29694
  0
VERTEX
  5
1ae
  8
Layer_0
  10
500.172
  20
612.76898
  0
VERTEX
  5
1af
  8
Layer_0
  10
499.172
  20
612.76898
  0
VERTEX
  5
1b0
  8
Layer_0
  10
499.172
  20
609.76898
  0
VERTEX
  5
1b1
  8
Layer_0
  10
500.172
  20
609.76898
  0
VERTEX
  5
1b2
  8
Layer_0
  10
500.172
  20
605.24896
  0
VERTEX
  5
1b3
  8
Layer_0
  10
504.67596
  20
605.24896
  0
VERTEX
  5
1b4
  8
Layer_0
  10
504.67596
  20
609.76898
  0
SEQEND
  0
POLYLINE
  5
1b6
  8
Layer_0
  62
0
  70
1
  66
1
  10
0
  20
0
  30
0
  0
VERTEX
  5
1b6
  8
Layer_0
  10
684.26892
  20
642.14398
  0
VERTEX
  5
1b7
  8
Layer_0
  10
683.46313
  20
642.02856
  0
VERTEX
  5
1b8
  8
Layer_0
  10
682.67767
  20
641.82452
  0
VERTEX
  5
1b9
  8
Layer_0
  10
681.9198
  20
641.53424
  0
VERTEX
  5
1ba
  8
Layer_0
  10
681.1969
  20
641.15997
  0
VERTEX
  5
1bb
  8
Layer_0
  10
680.23389
  20
640.58545
  0
VERTEX
  5
1bc
  8
Layer_0
  10
679.32568
  20
639.9314
  0
VERTEX
  5
1bd
  8
Layer_0
  10
678.47699
  20
639.2016
  0
VERTEX
  5
1be
  8
Layer_0
  10
677.69293
  20
638.39996
  0
VERTEX
  5
1bf
  8
Layer_0
  10
677.31885
  20
637.94922
  0
VERTEX
  5
1c0
  8
Layer_0
  10
676.96643
  20
637.4826
  0
VERTEX
  5
1c1
  8
Layer_0
  10
676.63611
  20
637.00073
  0
VERTEX
  5
1c2
  8
Layer_0
  10
676.32849
  20
636.50458
  0
VERTEX
  5
1c3
  8
Layer_0
  10
676.04382
  20
635.99481
  0
VERTEX
  5
1c4
  8
Layer_0
  10
675.78271
  20
635.47229
  0
VERTEX
  5
1c5
  8
Layer_0
  10
675.54559
  20
634.93774
  0
VERTEX
  5
1c6
  8
Layer_0
  10
675.33289
  20
634.39197
  0
VERTEX
  5
1c7
  8
Layer_0
  10
675.2135
  20
633.95856
  0
VERTEX
  5
1c8
  8
Layer_0
  10
675.12549
  20
633.51831
  0
VERTEX
  5
1c9
  8
Layer_0
  10
675.06921
  20
633.07288
  0
VERTEX
  5
1ca
  8
Layer_0
  10
675.04492
  20
632.62396
  0
VERTEX
  5
1cb
  8
Layer_0
  10
675.04492
  20
615.15997
  0
VERTEX
  5
1cc
  8
Layer_0
  10
674.95288
  20
614.53564
  0
VERTEX
  5
1cd
  8
Layer_0
  10
674.77173
  20
613.93457
  0
VERTEX
  5
1ce
  8
Layer_0
  10
674.50525
  20
613.36621
  0
VERTEX
  5
1cf
  8
Layer_0
  10
674.15692
  20
612.83997
  0
VERTEX
  5
1d0
  8
Layer_0
  10
673.85132
  20
612.43121
  0
VERTEX
  5
1d1
  8
Layer_0
  10
673.5141
  20
612.05176
  0
VERTEX
  5
1d2
  8
Layer_0
  10
673.14746
  20
611.70325
  0
VERTEX
  5
1d3
  8
Layer_0
  10
672.7536
  20
611.38721
  0
VERTEX
  5
1d4
  8
Layer_0
  10
672.33459
  20
611.10529
  0
VERTEX
  5
1d5
  8
Layer_0
  10
671.89276
  20
610.85907
  0
VERTEX
  5
1d6
  8
Layer_0
  10
671.43011
  20
610.65009
  0
VERTEX
  5
1d7
  8
Layer_0
  10
670.94891
  20
610.47998
  0
VERTEX
  5
1d8
  8
Layer_0
  10
670.61926
  20
610.42029
  0
VERTEX
  5
1d9
  8
Layer_0
  10
670.28491
  20
610.39996
  0
VERTEX
  5
1da
  8
Layer_0
  10
654.40491
  20
610.39996
  0
VERTEX
  5
1db
  8
Layer_0
  10
653.88959
  20
610.33685
  0
VERTEX
  5
1dc
  8
Layer_0
  10
653.3894
  20
610.20636
  0
VERTEX
  5
1dd
  8
Layer_0
  10
652.91101
  20
610.01068
  0
VERTEX
  5
1de
  8
Layer_0
  10
652.46094
  20
609.75195
  0
VERTEX
  5
1df
  8
Layer_0
  10
651.98566
  20
609.44281
  0
VERTEX
  5
1e0
  8
Layer_0
  10
651.54395
  20
609.0932
  0
VERTEX
  5
1e1
  8
Layer_0
  10
651.13818
  20
608.70599
  0
VERTEX
  5
1e2
  8
Layer_0
  10
650.77039
  20
608.28394
  0
VERTEX
  5
1e3
  8
Layer_0
  10
650.44293
  20
607.82983
  0
VERTEX
  5
1e4
  8
Layer_0
  10
650.15808
  20
607.34662
  0
VERTEX
  5
1e5
  8
Layer_0
  10
649.91797
  20
606.83704
  0
VERTEX
  5
1e6
  8
Layer_0
  10
649.72491
  20
606.30396
  0
VERTEX
  5
1e7
  8
Layer_0
  10
649.66516
  20
605.97437
  0
VERTEX
  5
1e8
  8
Layer_0
  10
649.6449
  20
605.63995
  0
VERTEX
  5
1e9
  8
Layer_0
  10
649.6449
  20
397.84796
  0
VERTEX
  5
1ea
  8
Layer_0
  10
641.34888
  20
397.84796
  0
VERTEX
  5
1eb
  8
Layer_0
  10
641.34888
  20
257.84796
  0
VERTEX
  5
1ec
  8
Layer_0
  10
650.34888
  20
257.84796
  0
VERTEX
  5
1ed
  8
Layer_0
  10
650.34888
  20
257.97595
  0
VERTEX
  5
1ee
  8
Layer_0
  10
827.44495
  20
257.97595
  0
VERTEX
  5
1ef
  8
Layer_0
  10
827.44495
  20
278.61597
  0
VERTEX
  5
1f0
  8
Layer_0
  10
827.38196
  20
279.13129
  0
VERTEX
  5
1f1
  8
Layer_0
  10
827.25159
  20
279.63153
  0
VERTEX
  5
1f2
  8
Layer_0
  10
827.05579
  20
280.10999
  0
VERTEX
  5
1f3
  8
Layer_0
  10
826.79688
  20
280.55994
  0
VERTEX
  5
1f4
  8
Layer_0
  10
826.48877
  20
281.03613
  0
VERTEX
  5
1f5
  8
Layer_0
  10
826.13965
  20
281.47852
  0
VERTEX
  5
1f6
  8
Layer_0
  10
825.75269
  20
281.88489
  0
VERTEX
  5
1f7
  8
Layer_0
  10
825.33069
  20
282.25281
  0
VERTEX
  5
1f8
  8
Layer_0
  10
824.87646
  20
282.5802
  0
VERTEX
  5
1f9
  8
Layer_0
  10
824.39282
  20
282.86475
  0
VERTEX
  5
1fa
  8
Layer_0
  10
823.88269
  20
283.104
  0
VERTEX
  5
1fb
  8
Layer_0
  10
823.34888
  20
283.29596
  0
VERTEX
  5
1fc
  8
Layer_0
  10
823.01953
  20
283.35675
  0
VERTEX
  5
1fd
  8
Layer_0
  10
822.68494
  20
283.37598
  0
VERTEX
  5
1fe
  8
Layer_0
  10
806.80493
  20
283.37598
  0
VERTEX
  5
1ff
  8
Layer_0
  10
806.3595
  20
283.42078
  0
VERTEX
  5
200
  8
Layer_0
  10
805.92493
  20
283.52057
  0
VERTEX
  5
201
  8
Layer_0
  10
805.50635
  20
283.67407
  0
VERTEX
  5
202
  8
Layer_0
  10
805.10889
  20
283.88
  0
VERTEX
  5
203
  8
Layer_0
  10
804.58911
  20
284.18732
  0
VERTEX
  5
204
  8
Layer_0
  10
804.10571
  20
284.54181
  0
VERTEX
  5
205
  8
Layer_0
  10
803.6615
  20
284.94012
  0
VERTEX
  5
206
  8
Layer_0
  10
803.25928
  20
285.37891
  0
VERTEX
  5
207
  8
Layer_0
  10
802.90173
  20
285.85474
  0
VERTEX
  5
208
  8
Layer_0
  10
802.59167
  20
286.3645
  0
VERTEX
  5
209
  8
Layer_0
  10
802.33179
  20
286.90466
  0
VERTEX
  5
20a
  8
Layer_0
  10
802.12488
  20
287.47198
  0
VERTEX
  5
20b
  8
Layer_0
  10
802.06543
  20
287.80164
  0
VERTEX
  5
20c
  8
Layer_0
  10
802.04492
  20
288.13599
  0
VERTEX
  5
20d
  8
Layer_0
  10
802.04492
  20
354.81598
  0
VERTEX
  5
20e
  8
Layer_0
  10
802.10852
  20
355.33118
  0
VERTEX
  5
20f
  8
Layer_0
  10
802.23914
  20
355.8313
  0
VERTEX
  5
210
  8
Layer_0
  10
802.43457
  20
356.30975
  0
VERTEX
  5
211
  8
Layer_0
  10
802.69287
  20
356.76001
  0
VERTEX
  5
212
  8
Layer_0
  10
803.0011
  20
357.23608
  0
VERTEX
  5
213
  8
Layer_0
  10
803.3501
  20
357.67847
  0
VERTEX
  5
214
  8
Layer_0
  10
803.73718
  20
358.08478
  0
VERTEX
  5
215
  8
Layer_0
  10
804.15918
  20
358.45276
  0
VERTEX
  5
216
  8
Layer_0
  10
804.61353
  20
358.78009
  0
VERTEX
  5
217
  8
Layer_0
  10
805.09705
  20
359.06464
  0
VERTEX
  5
218
  8
Layer_0
  10
805.60718
  20
359.30402
  0
VERTEX
  5
219
  8
Layer_0
  10
806.14087
  20
359.49597
  0
VERTEX
  5
21a
  8
Layer_0
  10
806.47058
  20
359.55591
  0
VERTEX
  5
21b
  8
Layer_0
  10
806.80493
  20
359.57593
  0
VERTEX
  5
21c
  8
Layer_0
  10
822.68494
  20
359.57593
  0
VERTEX
  5
21d
  8
Layer_0
  10
823.13049
  20
359.61987
  0
VERTEX
  5
21e
  8
Layer_0
  10
823.56506
  20
359.7196
  0
VERTEX
  5
21f
  8
Layer_0
  10
823.98364
  20
359.87341
  0
VERTEX
  5
220
  8
Layer_0
  10
824.38086
  20
360.07996
  0
VERTEX
  5
221
  8
Layer_0
  10
824.90076
  20
360.38733
  0
VERTEX
  5
222
  8
Layer_0
  10
825.38416
  20
360.74182
  0
VERTEX
  5
223
  8
Layer_0
  10
825.82837
  20
361.14014
  0
VERTEX
  5
224
  8
Layer_0
  10
826.23071
  20
361.57886
  0
VERTEX
  5
225
  8
Layer_0
  10
826.58826
  20
362.05469
  0
VERTEX
  5
226
  8
Layer_0
  10
826.89832
  20
362.56439
  0
VERTEX
  5
227
  8
Layer_0
  10
827.1582
  20
363.10461
  0
VERTEX
  5
228
  8
Layer_0
  10
827.36499
  20
363.672
  0
VERTEX
  5
229
  8
Layer_0
  10
827.42505
  20
364.00153
  0
VERTEX
  5
22a
  8
Layer_0
  10
827.44495
  20
364.33594
  0
VERTEX
  5
22b
  8
Layer_0
  10
827.44495
  20
605.63995
  0
VERTEX
  5
22c
  8
Layer_0
  10
827.38232
  20
606.1554
  0
VERTEX
  5
22d
  8
Layer_0
  10
827.25195
  20
606.65564
  0
VERTEX
  5
22e
  8
Layer_0
  10
827.05615
  20
607.13409
  0
VERTEX
  5
22f
  8
Layer_0
  10
826.79688
  20
607.58398
  0
VERTEX
  5
230
  8
Layer_0
  10
826.48926
  20
608.06061
  0
VERTEX
  5
231
  8
Layer_0
  10
826.1405
  20
608.50336
  0
VERTEX
  5
232
  8
Layer_0
  10
825.75366
  20
608.90991
  0
VERTEX
  5
233
  8
Layer_0
  10
825.33167
  20
609.27802
  0
VERTEX
  5
234
  8
Layer_0
  10
824.87732
  20
609.60535
  0
VERTEX
  5
235
  8
Layer_0
  10
824.39343
  20
609.88965
  0
VERTEX
  5
236
  8
Layer_0
  10
823.88306
  20
610.1286
  0
VERTEX
  5
237
  8
Layer_0
  10
823.34888
  20
610.31995
  0
VERTEX
  5
238
  8
Layer_0
  10
823.01929
  20
610.38
  0
VERTEX
  5
239
  8
Layer_0
  10
822.68494
  20
610.39996
  0
VERTEX
  5
23a
  8
Layer_0
  10
806.80493
  20
610.39996
  0
VERTEX
  5
23b
  8
Layer_0
  10
806.35938
  20
610.44385
  0
VERTEX
  5
23c
  8
Layer_0
  10
805.92468
  20
610.54352
  0
VERTEX
  5
23d
  8
Layer_0
  10
805.5061
  20
610.69739
  0
VERTEX
  5
23e
  8
Layer_0
  10
805.10889
  20
610.90399
  0
VERTEX
  5
23f
  8
Layer_0
  10
804.58936
  20
611.21155
  0
VERTEX
  5
240
  8
Layer_0
  10
804.10596
  20
611.5661
  0
VERTEX
  5
241
  8
Layer_0
  10
803.66187
  20
611.96448
  0
VERTEX
  5
242
  8
Layer_0
  10
803.25964
  20
612.4032
  0
VERTEX
  5
243
  8
Layer_0
  10
802.9021
  20
612.87903
  0
VERTEX
  5
244
  8
Layer_0
  10
802.59192
  20
613.38867
  0
VERTEX
  5
245
  8
Layer_0
  10
802.33191
  20
613.92877
  0
VERTEX
  5
246
  8
Layer_0
  10
802.12488
  20
614.49597
  0
VERTEX
  5
247
  8
Layer_0
  10
802.06494
  20
614.82556
  0
VERTEX
  5
248
  8
Layer_0
  10
802.04492
  20
615.15997
  0
VERTEX
  5
249
  8
Layer_0
  10
802.04492
  20
632.62396
  0
VERTEX
  5
24a
  8
Layer_0
  10
801.98169
  20
633.38385
  0
VERTEX
  5
24b
  8
Layer_0
  10
801.8313
  20
634.12878
  0
VERTEX
  5
24c
  8
Layer_0
  10
801.5957
  20
634.85132
  0
VERTEX
  5
24d
  8
Layer_0
  10
801.27686
  20
635.54395
  0
VERTEX
  5
24e
  8
Layer_0
  10
800.95532
  20
636.17517
  0
VERTEX
  5
24f
  8
Layer_0
  10
800.59851
  20
636.7851
  0
VERTEX
  5
250
  8
Layer_0
  10
800.20764
  20
637.37238
  0
VERTEX
  5
251
  8
Layer_0
  10
799.78381
  20
637.93555
  0
VERTEX
  5
252
  8
Layer_0
  10
799.328
  20
638.47333
  0
VERTEX
  5
253
  8
Layer_0
  10
798.84155
  20
638.98425
  0
VERTEX
  5
254
  8
Layer_0
  10
798.32544
  20
639.46692
  0
VERTEX
  5
255
  8
Layer_0
  10
797.78088
  20
639.91998
  0
VERTEX
  5
256
  8
Layer_0
  10
796.96594
  20
640.50751
  0
VERTEX
  5
257
  8
Layer_0
  10
796.10901
  20
641.02881
  0
VERTEX
  5
258
  8
Layer_0
  10
795.21399
  20
641.48169
  0
VERTEX
  5
259
  8
Layer_0
  10
794.28491
  20
641.86395
  0
VERTEX
  5
25a
  8
Layer_0
  10
793.85156
  20
641.98328
  0
VERTEX
  5
25b
  8
Layer_0
  10
793.41125
  20
642.07129
  0
VERTEX
  5
25c
  8
Layer_0
  10
792.96582
  20
642.12756
  0
VERTEX
  5
25d
  8
Layer_0
  10
792.51697
  20
642.15198
  0
VERTEX
  5
25e
  8
Layer_0
  10
684.57294
  20
642.15198
  0
VERTEX
  5
25f
  8
Layer_0
  10
684.26892
  20
642.14398
  0
SEQEND
  0
POLYLINE
  5
261
  8
Layer_0
  62
0
  70
1
  66
1
  10
0
  20
0
  30
0
  0
VERTEX
  5
261
  8
Layer_0
  10
797.62891
  20
265.23999
  0
VERTEX
  5
262
  8
Layer_0
  10
797.19775
  20
265.17981
  0
VERTEX
  5
263
  8
Layer_0
  10
796.79688
  20
265.04254
  0
VERTEX
  5
264
  8
Layer_0
  10
796.43445
  20
264.83618
  0
VERTEX
  5
265
  8
Layer_0
  10
796.11816
  20
264.56866
  0
VERTEX
  5
266
  8
Layer_0
  10
795.85596
  20
264.24805
  0
VERTEX
  5
267
  8
Layer_0
  10
795.65576
  20
263.88226
  0
VERTEX
  5
268
  8
Layer_0
  10
795.52527
  20
263.47931
  0
VERTEX
  5
269
  8
Layer_0
  10
795.47241
  20
263.04718
  0
VERTEX
  5
26a
  8
Layer_0
  10
795.50317
  20
262.61292
  0
VERTEX
  5
26b
  8
Layer_0
  10
795.61292
  20
262.20386
  0
VERTEX
  5
26c
  8
Layer_0
  10
795.79431
  20
261.82837
  0
VERTEX
  5
26d
  8
Layer_0
  10
796.03979
  20
261.49487
  0
VERTEX
  5
26e
  8
Layer_0
  10
796.34204
  20
261.21179
  0
VERTEX
  5
26f
  8
Layer_0
  10
796.6936
  20
260.98743
  0
VERTEX
  5
270
  8
Layer_0
  10
797.08691
  20
260.8302
  0
VERTEX
  5
271
  8
Layer_0
  10
797.51453
  20
260.74854
  0
VERTEX
  5
272
  8
Layer_0
  10
797.94983
  20
260.75006
  0
VERTEX
  5
273
  8
Layer_0
  10
798.36536
  20
260.83215
  0
VERTEX
  5
274
  8
Layer_0
  10
798.7522
  20
260.98798
  0
VERTEX
  5
275
  8
Layer_0
  10
799.10132
  20
261.21057
  0
VERTEX
  5
276
  8
Layer_0
  10
799.40405
  20
261.49316
  0
VERTEX
  5
277
  8
Layer_0
  10
799.65149
  20
261.82886
  0
VERTEX
  5
278
  8
Layer_0
  10
799.83472
  20
262.21069
  0
VERTEX
  5
279
  8
Layer_0
  10
799.94482
  20
262.6319
  0
VERTEX
  5
27a
  8
Layer_0
  10
799.97253
  20
263.06635
  0
VERTEX
  5
27b
  8
Layer_0
  10
799.91846
  20
263.48645
  0
VERTEX
  5
27c
  8
Layer_0
  10
799.78894
  20
263.88287
  0
VERTEX
  5
27d
  8
Layer_0
  10
799.59033
  20
264.24628
  0
VERTEX
  5
27e
  8
Layer_0
  10
799.32861
  20
264.56738
  0
VERTEX
  5
27f
  8
Layer_0
  10
799.01038
  20
264.83691
  0
VERTEX
  5
280
  8
Layer_0
  10
798.64172
  20
265.04553
  0
VERTEX
  5
281
  8
Layer_0
  10
798.22888
  20
265.18396
  0
VERTEX
  5
282
  8
Layer_0
  10
798.03064
  20
265.22437
  0
VERTEX
  5
283
  8
Layer_0
  10
797.82886
  20
265.23999
  0
VERTEX
  5
284
  8
Layer_0
  10
797.62891
  20
265.23999
  0
SEQEND
  0
POLYLINE
  5
286
  8
Layer_0
  62
0
  70
1
  66
1
  10
0
  20
0
  30
0
  0
VERTEX
  5
286
  8
Layer_0
  10
679.71692
  20
265.24799
  0
VERTEX
  5
287
  8
Layer_0
  10
679.34235
  20
265.21698
  0
VERTEX
  5
288
  8
Layer_0
  10
678.98541
  20
265.12646
  0
VERTEX
  5
289
  8
Layer_0
  10
678.65204
  20
264.98096
  0
VERTEX
  5
28a
  8
Layer_0
  10
678.34796
  20
264.78497
  0
VERTEX
  5
28b
  8
Layer_0
  10
678.0791
  20
264.54297
  0
VERTEX
  5
28c
  8
Layer_0
  10
677.85132
  20
264.25934
  0
VERTEX
  5
28d
  8
Layer_0
  10
677.67047
  20
263.93866
  0
VERTEX
  5
28e
  8
Layer_0
  10
677.54236
  20
263.58533
  0
VERTEX
  5
28f
  8
Layer_0
  10
677.47449
  20
263.21564
  0
VERTEX
  5
290
  8
Layer_0
  10
677.46863
  20
262.84747
  0
VERTEX
  5
291
  8
Layer_0
  10
677.52203
  20
262.48767
  0
VERTEX
  5
292
  8
Layer_0
  10
677.63184
  20
262.14301
  0
VERTEX
  5
293
  8
Layer_0
  10
677.79535
  20
261.82031
  0
VERTEX
  5
294
  8
Layer_0
  10
678.00964
  20
261.52643
  0
VERTEX
  5
295
  8
Layer_0
  10
678.27203
  20
261.26813
  0
VERTEX
  5
296
  8
Layer_0
  10
678.57971
  20
261.05225
  0
VERTEX
  5
297
  8
Layer_0
  10
678.91882
  20
260.89026
  0
VERTEX
  5
298
  8
Layer_0
  10
679.27271
  20
260.78857
  0
VERTEX
  5
299
  8
Layer_0
  10
679.63397
  20
260.74622
  0
VERTEX
  5
29a
  8
Layer_0
  10
679.99536
  20
260.76233
  0
VERTEX
  5
29b
  8
Layer_0
  10
680.34949
  20
260.83588
  0
VERTEX
  5
29c
  8
Layer_0
  10
680.68921
  20
260.96606
  0
VERTEX
  5
29d
  8
Layer_0
  10
681.00702
  20
261.15198
  0
VERTEX
  5
29e
  8
Layer_0
  10
681.29565
  20
261.39264
  0
VERTEX
  5
29f
  8
Layer_0
  10
681.54053
  20
261.6778
  0
VERTEX
  5
2a0
  8
Layer_0
  10
681.73108
  20
261.99286
  0
VERTEX
  5
2a1
  8
Layer_0
  10
681.86627
  20
262.33057
  0
VERTEX
  5
2a2
  8
Layer_0
  10
681.94513
  20
262.68365
  0
VERTEX
  5
2a3
  8
Layer_0
  10
681.96667
  20
263.0448
  0
VERTEX
  5
2a4
  8
Layer_0
  10
681.92981
  20
263.4068
  0
VERTEX
  5
2a5
  8
Layer_0
  10
681.83356
  20
263.76227
  0
VERTEX
  5
2a6
  8
Layer_0
  10
681.67688
  20
264.104
  0
VERTEX
  5
2a7
  8
Layer_0
  10
681.5282
  20
264.33038
  0
VERTEX
  5
2a8
  8
Layer_0
  10
681.35565
  20
264.53546
  0
VERTEX
  5
2a9
  8
Layer_0
  10
681.1615
  20
264.71771
  0
VERTEX
  5
2aa
  8
Layer_0
  10
680.94824
  20
264.87555
  0
VERTEX
  5
2ab
  8
Layer_0
  10
680.71802
  20
265.00745
  0
VERTEX
  5
2ac
  8
Layer_0
  10
680.47314
  20
265.11182
  0
VERTEX
  5
2ad
  8
Layer_0
  10
680.21606
  20
265.18719
  0
VERTEX
  5
2ae
  8
Layer_0
  10
679.94891
  20
265.23193
  0
VERTEX
  5
2af
  8
Layer_0
  10
679.71692
  20
265.24799
  0
SEQEND
  0
POLYLINE
  5
2b1
  8
Layer_0
  62
0
  70
1
  66
1
  10
0
  20
0
  30
0
  0
VERTEX
  5
2b1
  8
Layer_0
  10
771.88489
  20
359.57593
  0
VERTEX
  5
2b2
  8
Layer_0
  10
772.40198
  20
359.51233
  0
VERTEX
  5
2b3
  8
Layer_0
  10
772.90393
  20
359.38159
  0
VERTEX
  5
2b4
  8
Layer_0
  10
773.3844
  20
359.18604
  0
VERTEX
  5
2b5
  8
Layer_0
  10
773.83691
  20
358.92798
  0
VERTEX
  5
2b6
  8
Layer_0
  10
774.31128
  20
358.61865
  0
VERTEX
  5
2b7
  8
Layer_0
  10
774.75195
  20
358.2688
  0
VERTEX
  5
2b8
  8
Layer_0
  10
775.15686
  20
357.88147
  0
VERTEX
  5
2b9
  8
Layer_0
  10
775.52356
  20
357.45935
  0
VERTEX
  5
2ba
  8
Layer_0
  10
775.84998
  20
357.00525
  0
VERTEX
  5
2bb
  8
Layer_0
  10
776.13391
  20
356.52209
  0
VERTEX
  5
2bc
  8
Layer_0
  10
776.37292
  20
356.01276
  0
VERTEX
  5
2bd
  8
Layer_0
  10
776.56494
  20
355.47998
  0
VERTEX
  5
2be
  8
Layer_0
  10
776.62524
  20
355.15045
  0
VERTEX
  5
2bf
  8
Layer_0
  10
776.6449
  20
354.81598
  0
VERTEX
  5
2c0
  8
Layer_0
  10
776.6449
  20
288.13599
  0
VERTEX
  5
2c1
  8
Layer_0
  10
776.5813
  20
287.6189
  0
VERTEX
  5
2c2
  8
Layer_0
  10
776.45068
  20
287.11682
  0
VERTEX
  5
2c3
  8
Layer_0
  10
776.25525
  20
286.63635
  0
VERTEX
  5
2c4
  8
Layer_0
  10
775.99695
  20
286.18396
  0
VERTEX
  5
2c5
  8
Layer_0
  10
775.68262
  20
285.70166
  0
VERTEX
  5
2c6
  8
Layer_0
  10
775.32617
  20
285.25452
  0
VERTEX
  5
2c7
  8
Layer_0
  10
774.93091
  20
284.84473
  0
VERTEX
  5
2c8
  8
Layer_0
  10
774.49976
  20
284.47479
  0
VERTEX
  5
2c9
  8
Layer_0
  10
774.03589
  20
284.14697
  0
VERTEX
  5
2ca
  8
Layer_0
  10
773.54199
  20
283.86371
  0
VERTEX
  5
2cb
  8
Layer_0
  10
773.02136
  20
283.62726
  0
VERTEX
  5
2cc
  8
Layer_0
  10
772.47693
  20
283.43994
  0
VERTEX
  5
2cd
  8
Layer_0
  10
772.18274
  20
283.3913
  0
VERTEX
  5
2ce
  8
Layer_0
  10
771.88489
  20
283.37598
  0
VERTEX
  5
2cf
  8
Layer_0
  10
679.80493
  20
283.37598
  0
VERTEX
  5
2d0
  8
Layer_0
  10
679.35938
  20
283.41974
  0
VERTEX
  5
2d1
  8
Layer_0
  10
678.92468
  20
283.51941
  0
VERTEX
  5
2d2
  8
Layer_0
  10
678.5061
  20
283.67334
  0
VERTEX
  5
2d3
  8
Layer_0
  10
678.10889
  20
283.88
  0
VERTEX
  5
2d4
  8
Layer_0
  10
677.58929
  20
284.18756
  0
VERTEX
  5
2d5
  8
Layer_0
  10
677.10608
  20
284.54218
  0
VERTEX
  5
2d6
  8
Layer_0
  10
676.66205
  20
284.94055
  0
VERTEX
  5
2d7
  8
Layer_0
  10
676.25989
  20
285.37927
  0
VERTEX
  5
2d8
  8
Layer_0
  10
675.90234
  20
285.85516
  0
VERTEX
  5
2d9
  8
Layer_0
  10
675.59216
  20
286.36481
  0
VERTEX
  5
2da
  8
Layer_0
  10
675.33215
  20
286.90485
  0
VERTEX
  5
2db
  8
Layer_0
  10
675.12488
  20
287.47198
  0
VERTEX
  5
2dc
  8
Layer_0
  10
675.06439
  20
287.80145
  0
VERTEX
  5
2dd
  8
Layer_0
  10
675.04492
  20
288.13599
  0
VERTEX
  5
2de
  8
Layer_0
  10
675.04492
  20
354.81598
  0
VERTEX
  5
2df
  8
Layer_0
  10
675.10797
  20
355.3313
  0
VERTEX
  5
2e0
  8
Layer_0
  10
675.23853
  20
355.83142
  0
VERTEX
  5
2e1
  8
Layer_0
  10
675.43427
  20
356.30994
  0
VERTEX
  5
2e2
  8
Layer_0
  10
675.69293
  20
356.76001
  0
VERTEX
  5
2e3
  8
Layer_0
  10
676.0011
  20
357.23615
  0
VERTEX
  5
2e4
  8
Layer_0
  10
676.35016
  20
357.67853
  0
VERTEX
  5
2e5
  8
Layer_0
  10
676.73712
  20
358.08484
  0
VERTEX
  5
2e6
  8
Layer_0
  10
677.15918
  20
358.45288
  0
VERTEX
  5
2e7
  8
Layer_0
  10
677.6134
  20
358.78027
  0
VERTEX
  5
2e8
  8
Layer_0
  10
678.09705
  20
359.06482
  0
VERTEX
  5
2e9
  8
Layer_0
  10
678.60718
  20
359.30408
  0
VERTEX
  5
2ea
  8
Layer_0
  10
679.14093
  20
359.49597
  0
VERTEX
  5
2eb
  8
Layer_0
  10
679.47046
  20
359.55664
  0
VERTEX
  5
2ec
  8
Layer_0
  10
679.80493
  20
359.57593
  0
VERTEX
  5
2ed
  8
Layer_0
  10
771.88489
  20
359.57593
  0
SEQEND
  0
POLYLINE
  5
2ef
  8
Layer_0
  62
0
  70
1
  66
1
  10
0
  20
0
  30
0
  0
VERTEX
  5
2ef
  8
Layer_0
  10
781.40491
  20
591.35199
  0
VERTEX
  5
2f0
  8
Layer_0
  10
781.99048
  20
591.27356
  0
VERTEX
  5
2f1
  8
Layer_0
  10
782.55542
  20
591.11188
  0
VERTEX
  5
2f2
  8
Layer_0
  10
783.09131
  20
590.8703
  0
VERTEX
  5
2f3
  8
Layer_0
  10
783.58887
  20
590.552
  0
VERTEX
  5
2f4
  8
Layer_0
  10
784.02185
  20
590.24475
  0
VERTEX
  5
2f5
  8
Layer_0
  10
784.42383
  20
589.90271
  0
VERTEX
  5
2f6
  8
Layer_0
  10
784.79309
  20
589.52844
  0
VERTEX
  5
2f7
  8
Layer_0
  10
785.12781
  20
589.12421
  0
VERTEX
  5
2f8
  8
Layer_0
  10
785.42615
  20
588.6925
  0
VERTEX
  5
2f9
  8
Layer_0
  10
785.68628
  20
588.2356
  0
VERTEX
  5
2fa
  8
Layer_0
  10
785.90649
  20
587.75598
  0
VERTEX
  5
2fb
  8
Layer_0
  10
786.08496
  20
587.25598
  0
VERTEX
  5
2fc
  8
Layer_0
  10
786.14294
  20
586.92181
  0
VERTEX
  5
2fd
  8
Layer_0
  10
786.17297
  20
586.58398
  0
VERTEX
  5
2fe
  8
Layer_0
  10
786.17297
  20
450.06396
  0
VERTEX
  5
2ff
  8
Layer_0
  10
786.09436
  20
449.47845
  0
VERTEX
  5
300
  8
Layer_0
  10
785.93274
  20
448.91339
  0
VERTEX
  5
301
  8
Layer_0
  10
785.69116
  20
448.37762
  0
VERTEX
  5
302
  8
Layer_0
  10
785.37292
  20
447.88
  0
VERTEX
  5
303
  8
Layer_0
  10
785.06567
  20
447.44708
  0
VERTEX
  5
304
  8
Layer_0
  10
784.72363
  20
447.0451
  0
VERTEX
  5
305
  8
Layer_0
  10
784.34937
  20
446.67584
  0
VERTEX
  5
306
  8
Layer_0
  10
783.94519
  20
446.34113
  0
VERTEX
  5
307
  8
Layer_0
  10
783.51343
  20
446.04279
  0
VERTEX
  5
308
  8
Layer_0
  10
783.05652
  20
445.78259
  0
VERTEX
  5
309
  8
Layer_0
  10
782.5769
  20
445.56238
  0
VERTEX
  5
30a
  8
Layer_0
  10
782.0769
  20
445.38397
  0
VERTEX
  5
30b
  8
Layer_0
  10
781.74292
  20
445.32526
  0
VERTEX
  5
30c
  8
Layer_0
  10
781.40491
  20
445.29596
  0
VERTEX
  5
30d
  8
Layer_0
  10
695.68494
  20
445.29596
  0
VERTEX
  5
30e
  8
Layer_0
  10
695.09949
  20
445.37488
  0
VERTEX
  5
30f
  8
Layer_0
  10
694.53455
  20
445.53662
  0
VERTEX
  5
310
  8
Layer_0
  10
693.99878
  20
445.77802
  0
VERTEX
  5
311
  8
Layer_0
  10
693.50092
  20
446.09595
  0
VERTEX
  5
312
  8
Layer_0
  10
693.06732
  20
446.40186
  0
VERTEX
  5
313
  8
Layer_0
  10
692.66504
  20
446.74304
  0
VERTEX
  5
314
  8
Layer_0
  10
692.2959
  20
447.117
  0
VERTEX
  5
315
  8
Layer_0
  10
691.96179
  20
447.52124
  0
VERTEX
  5
316
  8
Layer_0
  10
691.66461
  20
447.95331
  0
VERTEX
  5
317
  8
Layer_0
  10
691.40613
  20
448.41077
  0
VERTEX
  5
318
  8
Layer_0
  10
691.18823
  20
448.89111
  0
VERTEX
  5
319
  8
Layer_0
  10
691.01294
  20
449.39197
  0
VERTEX
  5
31a
  8
Layer_0
  10
690.94702
  20
449.72546
  0
VERTEX
  5
31b
  8
Layer_0
  10
690.91693
  20
450.06396
  0
VERTEX
  5
31c
  8
Layer_0
  10
690.91693
  20
586.58398
  0
VERTEX
  5
31d
  8
Layer_0
  10
690.99536
  20
587.16949
  0
VERTEX
  5
31e
  8
Layer_0
  10
691.15698
  20
587.7345
  0
VERTEX
  5
31f
  8
Layer_0
  10
691.39862
  20
588.27026
  0
VERTEX
  5
320
  8
Layer_0
  10
691.71692
  20
588.76794
  0
VERTEX
  5
321
  8
Layer_0
  10
692.02417
  20
589.20087
  0
VERTEX
  5
322
  8
Layer_0
  10
692.36615
  20
589.60291
  0
VERTEX
  5
323
  8
Layer_0
  10
692.74042
  20
589.97217
  0
VERTEX
  5
324
  8
Layer_0
  10
693.14465
  20
590.30688
  0
VERTEX
  5
325
  8
Layer_0
  10
693.57642
  20
590.60522
  0
VERTEX
  5
326
  8
Layer_0
  10
694.03333
  20
590.86536
  0
VERTEX
  5
327
  8
Layer_0
  10
694.51294
  20
591.08557
  0
VERTEX
  5
328
  8
Layer_0
  10
695.01294
  20
591.26398
  0
VERTEX
  5
329
  8
Layer_0
  10
695.34711
  20
591.32214
  0
VERTEX
  5
32a
  8
Layer_0
  10
695.68494
  20
591.35199
  0
VERTEX
  5
32b
  8
Layer_0
  10
781.40491
  20
591.35199
  0
SEQEND
  0
POLYLINE
  5
32d
  8
Layer_0
  62
0
  70
1
  66
1
  10
0
  20
0
  30
0
  0
VERTEX
  5
32d
  8
Layer_0
  10
787.75696
  20
632.62396
  0
VERTEX
  5
32e
  8
Layer_0
  10
788.34558
  20
632.54358
  0
VERTEX
  5
32f
  8
Layer_0
  10
788.91418
  20
632.38135
  0
VERTEX
  5
330
  8
Layer_0
  10
789.4541
  20
632.1405
  0
VERTEX
  5
331
  8
Layer_0
  10
789.95691
  20
631.82397
  0
VERTEX
  5
332
  8
Layer_0
  10
790.39514
  20
631.5105
  0
VERTEX
  5
333
  8
Layer_0
  10
790.80115
  20
631.16113
  0
VERTEX
  5
334
  8
Layer_0
  10
791.17297
  20
630.7785
  0
VERTEX
  5
335
  8
Layer_0
  10
791.50879
  20
630.36517
  0
VERTEX
  5
336
  8
Layer_0
  10
791.80652
  20
629.92365
  0
VERTEX
  5
337
  8
Layer_0
  10
792.06445
  20
629.45654
  0
VERTEX
  5
338
  8
Layer_0
  10
792.28052
  20
628.96649
  0
VERTEX
  5
339
  8
Layer_0
  10
792.45288
  20
628.45599
  0
VERTEX
  5
33a
  8
Layer_0
  10
792.50061
  20
628.16168
  0
VERTEX
  5
33b
  8
Layer_0
  10
792.51697
  20
627.86395
  0
VERTEX
  5
33c
  8
Layer_0
  10
792.51697
  20
615.15997
  0
VERTEX
  5
33d
  8
Layer_0
  10
792.45557
  20
614.64325
  0
VERTEX
  5
33e
  8
Layer_0
  10
792.32703
  20
614.14136
  0
VERTEX
  5
33f
  8
Layer_0
  10
792.13342
  20
613.66077
  0
VERTEX
  5
340
  8
Layer_0
  10
791.87695
  20
613.20795
  0
VERTEX
  5
341
  8
Layer_0
  10
791.56677
  20
612.73309
  0
VERTEX
  5
342
  8
Layer_0
  10
791.21606
  20
612.29199
  0
VERTEX
  5
343
  8
Layer_0
  10
790.82776
  20
611.88684
  0
VERTEX
  5
344
  8
Layer_0
  10
790.40466
  20
611.52002
  0
VERTEX
  5
345
  8
Layer_0
  10
789.94958
  20
611.19366
  0
VERTEX
  5
346
  8
Layer_0
  10
789.46533
  20
610.91003
  0
VERTEX
  5
347
  8
Layer_0
  10
788.95483
  20
610.67139
  0
VERTEX
  5
348
  8
Layer_0
  10
788.4209
  20
610.47998
  0
VERTEX
  5
349
  8
Layer_0
  10
788.09143
  20
610.41974
  0
VERTEX
  5
34a
  8
Layer_0
  10
787.75696
  20
610.39996
  0
VERTEX
  5
34b
  8
Layer_0
  10
689.33289
  20
610.39996
  0
VERTEX
  5
34c
  8
Layer_0
  10
688.74432
  20
610.48059
  0
VERTEX
  5
34d
  8
Layer_0
  10
688.17578
  20
610.64282
  0
VERTEX
  5
34e
  8
Layer_0
  10
687.63574
  20
610.88367
  0
VERTEX
  5
34f
  8
Layer_0
  10
687.13293
  20
611.19995
  0
VERTEX
  5
350
  8
Layer_0
  10
686.69464
  20
611.51343
  0
VERTEX
  5
351
  8
Layer_0
  10
686.28864
  20
611.86279
  0
VERTEX
  5
352
  8
Layer_0
  10
685.91675
  20
612.24542
  0
VERTEX
  5
353
  8
Layer_0
  10
685.58099
  20
612.65875
  0
VERTEX
  5
354
  8
Layer_0
  10
685.2832
  20
613.10028
  0
VERTEX
  5
355
  8
Layer_0
  10
685.02533
  20
613.56738
  0
VERTEX
  5
356
  8
Layer_0
  10
684.80927
  20
614.05743
  0
VERTEX
  5
357
  8
Layer_0
  10
684.63696
  20
614.56799
  0
VERTEX
  5
358
  8
Layer_0
  10
684.58881
  20
614.86224
  0
VERTEX
  5
359
  8
Layer_0
  10
684.57294
  20
615.15997
  0
VERTEX
  5
35a
  8
Layer_0
  10
684.57294
  20
627.86395
  0
VERTEX
  5
35b
  8
Layer_0
  10
684.61981
  20
628.31262
  0
VERTEX
  5
35c
  8
Layer_0
  10
684.72046
  20
628.75073
  0
VERTEX
  5
35d
  8
Layer_0
  10
684.87329
  20
629.1734
  0
VERTEX
  5
35e
  8
Layer_0
  10
685.0769
  20
629.57599
  0
VERTEX
  5
35f
  8
Layer_0
  10
685.38464
  20
630.09412
  0
VERTEX
  5
360
  8
Layer_0
  10
685.73938
  20
630.57574
  0
VERTEX
  5
361
  8
Layer_0
  10
686.13782
  20
631.01813
  0
VERTEX
  5
362
  8
Layer_0
  10
686.57672
  20
631.41846
  0
VERTEX
  5
363
  8
Layer_0
  10
687.05261
  20
631.77393
  0
VERTEX
  5
364
  8
Layer_0
  10
687.56213
  20
632.08191
  0
VERTEX
  5
365
  8
Layer_0
  10
688.10205
  20
632.33948
  0
VERTEX
  5
366
  8
Layer_0
  10
688.66895
  20
632.54395
  0
VERTEX
  5
367
  8
Layer_0
  10
688.99854
  20
632.604
  0
VERTEX
  5
368
  8
Layer_0
  10
689.33289
  20
632.62396
  0
VERTEX
  5
369
  8
Layer_0
  10
787.75696
  20
632.62396
  0
SEQEND
  0
POLYLINE
  5
36b
  8
Layer_0
  62
0
  70
1
  66
1
  10
0
  20
0
  30
0
  0
VERTEX
  5
36b
  8
Layer_0
  10
633.06488
  20
387.96277
  0
VERTEX
  5
36c
  8
Layer_0
  10
633.06488
  20
388.96277
  0
VERTEX
  5
36d
  8
Layer_0
  10
630.06488
  20
388.96277
  0
VERTEX
  5
36e
  8
Layer_0
  10
630.06488
  20
387.96277
  0
VERTEX
  5
36f
  8
Layer_0
  10
625.53693
  20
387.96277
  0
VERTEX
  5
370
  8
Layer_0
  10
625.53693
  20
383.4588
  0
VERTEX
  5
371
  8
Layer_0
  10
630.06488
  20
383.4588
  0
VERTEX
  5
372
  8
Layer_0
  10
630.06488
  20
382.4588
  0
VERTEX
  5
373
  8
Layer_0
  10
633.06488
  20
382.4588
  0
VERTEX
  5
374
  8
Layer_0
  10
633.06488
  20
383.4588
  0
VERTEX
  5
375
  8
Layer_0
  10
637.5849
  20
383.4588
  0
VERTEX
  5
376
  8
Layer_0
  10
637.5849
  20
387.96277
  0
VERTEX
  5
377
  8
Layer_0
  10
633.06488
  20
387.96277
  0
SEQEND
  0
POLYLINE
  5
379
  8
Layer_0
  62
0
  70
1
  66
1
  10
0
  20
0
  30
0
  0
VERTEX
  5
379
  8
Layer_0
  10
633.28485
  20
279.96265
  0
VERTEX
  5
37a
  8
Layer_0
  10
633.28485
  20
280.96265
  0
VERTEX
  5
37b
  8
Layer_0
  10
630.28485
  20
280.96265
  0
VERTEX
  5
37c
  8
Layer_0
  10
630.28485
  20
279.96265
  0
VERTEX
  5
37d
  8
Layer_0
  10
625.7569
  20
279.96265
  0
VERTEX
  5
37e
  8
Layer_0
  10
625.7569
  20
275.45868
  0
VERTEX
  5
37f
  8
Layer_0
  10
630.28485
  20
275.45868
  0
VERTEX
  5
380
  8
Layer_0
  10
630.28485
  20
274.45868
  0
VERTEX
  5
381
  8
Layer_0
  10
633.28485
  20
274.45868
  0
VERTEX
  5
382
  8
Layer_0
  10
633.28485
  20
275.45868
  0
VERTEX
  5
383
  8
Layer_0
  10
637.80487
  20
275.45868
  0
VERTEX
  5
384
  8
Layer_0
  10
637.80487
  20
279.96265
  0
VERTEX
  5
385
  8
Layer_0
  10
633.28485
  20
279.96265
  0
SEQEND
  0
POLYLINE
  5
387
  8
Layer_0
  62
0
  70
1
  66
1
  10
0
  20
0
  30
0
  0
VERTEX
  5
387
  8
Layer_0
  10
517.00293
  20
397.67853
  0
VERTEX
  5
388
  8
Layer_0
  10
637.65088
  20
397.67853
  0
VERTEX
  5
389
  8
Layer_0
  10
637.65088
  20
257.97449
  0
VERTEX
  5
38a
  8
Layer_0
  10
472.55493
  20
257.97455
  0
VERTEX
  5
38b
  8
Layer_0
  10
472.55493
  20
280.19855
  0
VERTEX
  5
38c
  8
Layer_0
  10
472.56372
  20
280.79474
  0
VERTEX
  5
38d
  8
Layer_0
  10
472.61926
  20
281.38562
  0
VERTEX
  5
38e
  8
Layer_0
  10
472.72083
  20
281.96851
  0
VERTEX
  5
38f
  8
Layer_0
  10
472.86755
  20
282.54077
  0
VERTEX
  5
390
  8
Layer_0
  10
473.05872
  20
283.09973
  0
VERTEX
  5
391
  8
Layer_0
  10
473.29346
  20
283.64282
  0
VERTEX
  5
392
  8
Layer_0
  10
473.57117
  20
284.16736
  0
VERTEX
  5
393
  8
Layer_0
  10
473.89093
  20
284.67053
  0
VERTEX
  5
394
  8
Layer_0
  10
474.08954
  20
284.90479
  0
VERTEX
  5
395
  8
Layer_0
  10
474.3103
  20
285.11719
  0
VERTEX
  5
396
  8
Layer_0
  10
474.55139
  20
285.30627
  0
VERTEX
  5
397
  8
Layer_0
  10
474.81091
  20
285.47058
  0
VERTEX
  5
398
  8
Layer_0
  10
475.28339
  20
285.72888
  0
VERTEX
  5
399
  8
Layer_0
  10
475.77087
  20
285.95294
  0
VERTEX
  5
39a
  8
Layer_0
  10
476.27155
  20
286.14227
  0
VERTEX
  5
39b
  8
Layer_0
  10
476.78357
  20
286.29639
  0
VERTEX
  5
39c
  8
Layer_0
  10
477.30493
  20
286.41479
  0
VERTEX
  5
39d
  8
Layer_0
  10
477.83386
  20
286.49695
  0
VERTEX
  5
39e
  8
Layer_0
  10
478.36853
  20
286.54236
  0
VERTEX
  5
39f
  8
Layer_0
  10
478.90692
  20
286.55054
  0
VERTEX
  5
3a0
  8
Layer_0
  10
486.68292
  20
286.55054
  0
VERTEX
  5
3a1
  8
Layer_0
  10
486.67096
  20
338.7865
  0
VERTEX
  5
3a2
  8
Layer_0
  10
486.28235
  20
338.51447
  0
VERTEX
  5
3a3
  8
Layer_0
  10
485.87769
  20
338.27014
  0
VERTEX
  5
3a4
  8
Layer_0
  10
485.45837
  20
338.05426
  0
VERTEX
  5
3a5
  8
Layer_0
  10
485.02588
  20
337.86737
  0
VERTEX
  5
3a6
  8
Layer_0
  10
484.58179
  20
337.71014
  0
VERTEX
  5
3a7
  8
Layer_0
  10
484.12756
  20
337.58313
  0
VERTEX
  5
3a8
  8
Layer_0
  10
483.66479
  20
337.48706
  0
VERTEX
  5
3a9
  8
Layer_0
  10
483.19489
  20
337.42249
  0
VERTEX
  5
3aa
  8
Layer_0
  10
482.64026
  20
337.36499
  0
VERTEX
  5
3ab
  8
Layer_0
  10
482.08289
  20
337.35052
  0
VERTEX
  5
3ac
  8
Layer_0
  10
478.90692
  20
337.35052
  0
VERTEX
  5
3ad
  8
Layer_0
  10
478.44385
  20
337.35822
  0
VERTEX
  5
3ae
  8
Layer_0
  10
477.98303
  20
337.39246
  0
VERTEX
  5
3af
  8
Layer_0
  10
477.52576
  20
337.453
  0
VERTEX
  5
3b0
  8
Layer_0
  10
477.07306
  20
337.53973
  0
VERTEX
  5
3b1
  8
Layer_0
  10
476.6261
  20
337.65222
  0
VERTEX
  5
3b2
  8
Layer_0
  10
476.18604
  20
337.79041
  0
VERTEX
  5
3b3
  8
Layer_0
  10
475.75391
  20
337.95392
  0
VERTEX
  5
3b4
  8
Layer_0
  10
475.33093
  20
338.14258
  0
VERTEX
  5
3b5
  8
Layer_0
  10
475.00903
  20
338.3161
  0
VERTEX
  5
3b6
  8
Layer_0
  10
474.69971
  20
338.51038
  0
VERTEX
  5
3b7
  8
Layer_0
  10
474.40399
  20
338.72473
  0
VERTEX
  5
3b8
  8
Layer_0
  10
474.12292
  20
338.95856
  0
VERTEX
  5
3b9
  8
Layer_0
  10
473.67651
  20
339.5625
  0
VERTEX
  5
3ba
  8
Layer_0
  10
473.3053
  20
340.21246
  0
VERTEX
  5
3bb
  8
Layer_0
  10
473.01294
  20
340.90149
  0
VERTEX
  5
3bc
  8
Layer_0
  10
472.80292
  20
341.62256
  0
VERTEX
  5
3bd
  8
Layer_0
  10
472.69019
  20
342.13562
  0
VERTEX
  5
3be
  8
Layer_0
  10
472.61108
  20
342.65448
  0
VERTEX
  5
3bf
  8
Layer_0
  10
472.56592
  20
343.17731
  0
VERTEX
  5
3c0
  8
Layer_0
  10
472.55493
  20
343.70251
  0
VERTEX
  5
3c1
  8
Layer_0
  10
472.55499
  20
424.66254
  0
VERTEX
  5
3c2
  8
Layer_0
  10
472.60089
  20
425.55676
  0
VERTEX
  5
3c3
  8
Layer_0
  10
472.71344
  20
426.44122
  0
VERTEX
  5
3c4
  8
Layer_0
  10
472.89148
  20
427.31232
  0
VERTEX
  5
3c5
  8
Layer_0
  10
473.13379
  20
428.1665
  0
VERTEX
  5
3c6
  8
Layer_0
  10
473.43927
  20
429.00018
  0
VERTEX
  5
3c7
  8
Layer_0
  10
473.80676
  20
429.80981
  0
VERTEX
  5
3c8
  8
Layer_0
  10
474.23505
  20
430.5918
  0
VERTEX
  5
3c9
  8
Layer_0
  10
474.72296
  20
431.34253
  0
VERTEX
  5
3ca
  8
Layer_0
  10
474.99719
  20
431.73798
  0
VERTEX
  5
3cb
  8
Layer_0
  10
475.29449
  20
432.11572
  0
VERTEX
  5
3cc
  8
Layer_0
  10
475.61401
  20
432.47491
  0
VERTEX
  5
3cd
  8
Layer_0
  10
475.95496
  20
432.81451
  0
VERTEX
  5
3ce
  8
Layer_0
  10
476.65521
  20
433.37256
  0
VERTEX
  5
3cf
  8
Layer_0
  10
477.39075
  20
433.87708
  0
VERTEX
  5
3d0
  8
Layer_0
  10
478.15845
  20
434.32666
  0
VERTEX
  5
3d1
  8
Layer_0
  10
478.9552
  20
434.72003
  0
VERTEX
  5
3d2
  8
Layer_0
  10
479.77795
  20
435.05573
  0
VERTEX
  5
3d3
  8
Layer_0
  10
480.62354
  20
435.33228
  0
VERTEX
  5
3d4
  8
Layer_0
  10
481.48889
  20
435.54834
  0
VERTEX
  5
3d5
  8
Layer_0
  10
482.37097
  20
435.70251
  0
VERTEX
  5
3d6
  8
Layer_0
  10
483.01794
  20
435.75708
  0
VERTEX
  5
3d7
  8
Layer_0
  10
483.66699
  20
435.77454
  0
VERTEX
  5
3d8
  8
Layer_0
  10
517.00299
  20
435.77454
  0
VERTEX
  5
3d9
  8
Layer_0
  10
517.00293
  20
397.67853
  0
SEQEND
  0
POLYLINE
  5
3db
  8
Layer_0
  62
0
  70
1
  66
1
  10
0
  20
0
  30
0
  0
VERTEX
  5
3db
  8
Layer_0
  10
480.68994
  20
349.72705
  0
VERTEX
  5
3dc
  8
Layer_0
  10
481.00409
  20
349.75873
  0
VERTEX
  5
3dd
  8
Layer_0
  10
481.29675
  20
349.84961
  0
VERTEX
  5
3de
  8
Layer_0
  10
481.56152
  20
349.99329
  0
VERTEX
  5
3df
  8
Layer_0
  10
481.79224
  20
350.18365
  0
VERTEX
  5
3e0
  8
Layer_0
  10
481.9826
  20
350.41437
  0
VERTEX
  5
3e1
  8
Layer_0
  10
482.12634
  20
350.6792
  0
VERTEX
  5
3e2
  8
Layer_0
  10
482.21716
  20
350.9718
  0
VERTEX
  5
3e3
  8
Layer_0
  10
482.24884
  20
351.28601
  0
VERTEX
  5
3e4
  8
Layer_0
  10
482.21716
  20
351.60016
  0
VERTEX
  5
3e5
  8
Layer_0
  10
482.12634
  20
351.89276
  0
VERTEX
  5
3e6
  8
Layer_0
  10
481.9826
  20
352.15759
  0
VERTEX
  5
3e7
  8
Layer_0
  10
481.79224
  20
352.38831
  0
VERTEX
  5
3e8
  8
Layer_0
  10
481.56152
  20
352.57867
  0
VERTEX
  5
3e9
  8
Layer_0
  10
481.29675
  20
352.72241
  0
VERTEX
  5
3ea
  8
Layer_0
  10
481.00409
  20
352.81323
  0
VERTEX
  5
3eb
  8
Layer_0
  10
480.68994
  20
352.84485
  0
VERTEX
  5
3ec
  8
Layer_0
  10
480.37579
  20
352.81323
  0
VERTEX
  5
3ed
  8
Layer_0
  10
480.08313
  20
352.72241
  0
VERTEX
  5
3ee
  8
Layer_0
  10
479.81836
  20
352.57867
  0
VERTEX
  5
3ef
  8
Layer_0
  10
479.58765
  20
352.38831
  0
VERTEX
  5
3f0
  8
Layer_0
  10
479.39728
  20
352.15759
  0
VERTEX
  5
3f1
  8
Layer_0
  10
479.25354
  20
351.89276
  0
VERTEX
  5
3f2
  8
Layer_0
  10
479.16272
  20
351.60016
  0
VERTEX
  5
3f3
  8
Layer_0
  10
479.13104
  20
351.28601
  0
VERTEX
  5
3f4
  8
Layer_0
  10
479.16272
  20
350.9718
  0
VERTEX
  5
3f5
  8
Layer_0
  10
479.25354
  20
350.6792
  0
VERTEX
  5
3f6
  8
Layer_0
  10
479.39728
  20
350.41437
  0
VERTEX
  5
3f7
  8
Layer_0
  10
479.58765
  20
350.18365
  0
VERTEX
  5
3f8
  8
Layer_0
  10
479.81836
  20
349.99329
  0
VERTEX
  5
3f9
  8
Layer_0
  10
480.08313
  20
349.84961
  0
VERTEX
  5
3fa
  8
Layer_0
  10
480.37579
  20
349.75873
  0
VERTEX
  5
3fb
  8
Layer_0
  10
480.68994
  20
349.72705
  0
SEQEND
  0
POLYLINE
  5
3fd
  8
Layer_0
  62
0
  70
1
  66
1
  10
0
  20
0
  30
0
  0
VERTEX
  5
3fd
  8
Layer_0
  10
495.47784
  20
337.22583
  0
VERTEX
  5
3fe
  8
Layer_0
  10
495.43201
  20
337.68018
  0
VERTEX
  5
3ff
  8
Layer_0
  10
495.30072
  20
338.10327
  0
VERTEX
  5
400
  8
Layer_0
  10
495.0929
  20
338.48621
  0
VERTEX
  5
401
  8
Layer_0
  10
494.81763
  20
338.81982
  0
VERTEX
  5
402
  8
Layer_0
  10
494.48395
  20
339.09509
  0
VERTEX
  5
403
  8
Layer_0
  10
494.10101
  20
339.30292
  0
VERTEX
  5
404
  8
Layer_0
  10
493.67786
  20
339.43427
  0
VERTEX
  5
405
  8
Layer_0
  10
493.22357
  20
339.4801
  0
VERTEX
  5
406
  8
Layer_0
  10
492.76929
  20
339.43427
  0
VERTEX
  5
407
  8
Layer_0
  10
492.34619
  20
339.30292
  0
VERTEX
  5
408
  8
Layer_0
  10
491.96326
  20
339.09509
  0
VERTEX
  5
409
  8
Layer_0
  10
491.62964
  20
338.81982
  0
VERTEX
  5
40a
  8
Layer_0
  10
491.35437
  20
338.48621
  0
VERTEX
  5
40b
  8
Layer_0
  10
491.14655
  20
338.10327
  0
VERTEX
  5
40c
  8
Layer_0
  10
491.01514
  20
337.68018
  0
VERTEX
  5
40d
  8
Layer_0
  10
490.9693
  20
337.22583
  0
VERTEX
  5
40e
  8
Layer_0
  10
491.01514
  20
336.77148
  0
VERTEX
  5
40f
  8
Layer_0
  10
491.14642
  20
336.34839
  0
VERTEX
  5
410
  8
Layer_0
  10
491.35425
  20
335.96545
  0
VERTEX
  5
411
  8
Layer_0
  10
491.62952
  20
335.63184
  0
VERTEX
  5
412
  8
Layer_0
  10
491.9632
  20
335.35657
  0
VERTEX
  5
413
  8
Layer_0
  10
492.34613
  20
335.14868
  0
VERTEX
  5
414
  8
Layer_0
  10
492.76929
  20
335.01733
  0
VERTEX
  5
415
  8
Layer_0
  10
493.22357
  20
334.97156
  0
VERTEX
  5
416
  8
Layer_0
  10
493.67786
  20
335.01733
  0
VERTEX
  5
417
  8
Layer_0
  10
494.10101
  20
335.14868
  0
VERTEX
  5
418
  8
Layer_0
  10
494.48395
  20
335.35657
  0
VERTEX
  5
419
  8
Layer_0
  10
494.81763
  20
335.63184
  0
VERTEX
  5
41a
  8
Layer_0
  10
495.0929
  20
335.96545
  0
VERTEX
  5
41b
  8
Layer_0
  10
495.30072
  20
336.34839
  0
VERTEX
  5
41c
  8
Layer_0
  10
495.43201
  20
336.77148
  0
VERTEX
  5
41d
  8
Layer_0
  10
495.47784
  20
337.22583
  0
SEQEND
  0
POLYLINE
  5
41f
  8
Layer_0
  62
0
  70
1
  66
1
  10
0
  20
0
  30
0
  0
VERTEX
  5
41f
  8
Layer_0
  10
504.68494
  20
275.79004
  0
VERTEX
  5
420
  8
Layer_0
  10
504.99908
  20
275.82172
  0
VERTEX
  5
421
  8
Layer_0
  10
505.29175
  20
275.9126
  0
VERTEX
  5
422
  8
Layer_0
  10
505.55652
  20
276.05627
  0
VERTEX
  5
423
  8
Layer_0
  10
505.78723
  20
276.24664
  0
VERTEX
  5
424
  8
Layer_0
  10
505.9776
  20
276.47736
  0
VERTEX
  5
425
  8
Layer_0
  10
506.12134
  20
276.74219
  0
VERTEX
  5
426
  8
Layer_0
  10
506.21216
  20
277.03479
  0
VERTEX
  5
427
  8
Layer_0
  10
506.24384
  20
277.349
  0
VERTEX
  5
428
  8
Layer_0
  10
506.21216
  20
277.66315
  0
VERTEX
  5
429
  8
Layer_0
  10
506.12134
  20
277.95575
  0
VERTEX
  5
42a
  8
Layer_0
  10
505.9776
  20
278.22058
  0
VERTEX
  5
42b
  8
Layer_0
  10
505.78723
  20
278.45129
  0
VERTEX
  5
42c
  8
Layer_0
  10
505.55652
  20
278.64166
  0
VERTEX
  5
42d
  8
Layer_0
  10
505.29175
  20
278.7854
  0
VERTEX
  5
42e
  8
Layer_0
  10
504.99908
  20
278.87622
  0
VERTEX
  5
42f
  8
Layer_0
  10
504.68494
  20
278.90784
  0
VERTEX
  5
430
  8
Layer_0
  10
504.37079
  20
278.87622
  0
VERTEX
  5
431
  8
Layer_0
  10
504.07813
  20
278.7854
  0
VERTEX
  5
432
  8
Layer_0
  10
503.81335
  20
278.64166
  0
VERTEX
  5
433
  8
Layer_0
  10
503.58264
  20
278.45129
  0
VERTEX
  5
434
  8
Layer_0
  10
503.39227
  20
278.22058
  0
VERTEX
  5
435
  8
Layer_0
  10
503.24854
  20
277.95575
  0
VERTEX
  5
436
  8
Layer_0
  10
503.15771
  20
277.66315
  0
VERTEX
  5
437
  8
Layer_0
  10
503.12604
  20
277.349
  0
VERTEX
  5
438
  8
Layer_0
  10
503.15771
  20
277.03479
  0
VERTEX
  5
439
  8
Layer_0
  10
503.24854
  20
276.74219
  0
VERTEX
  5
43a
  8
Layer_0
  10
503.39227
  20
276.47736
  0
VERTEX
  5
43b
  8
Layer_0
  10
503.58264
  20
276.24664
  0
VERTEX
  5
43c
  8
Layer_0
  10
503.81335
  20
276.05627
  0
VERTEX
  5
43d
  8
Layer_0
  10
504.07813
  20
275.9126
  0
VERTEX
  5
43e
  8
Layer_0
  10
504.37079
  20
275.82172
  0
VERTEX
  5
43f
  8
Layer_0
  10
504.68494
  20
275.79004
  0
SEQEND
  0
POLYLINE
  5
441
  8
Layer_0
  62
0
  70
1
  66
1
  10
0
  20
0
  30
0
  0
VERTEX
  5
441
  8
Layer_0
  10
495.47778
  20
285.70618
  0
VERTEX
  5
442
  8
Layer_0
  10
495.43201
  20
286.16052
  0
VERTEX
  5
443
  8
Layer_0
  10
495.3006
  20
286.58362
  0
VERTEX
  5
444
  8
Layer_0
  10
495.09277
  20
286.96655
  0
VERTEX
  5
445
  8
Layer_0
  10
494.8175
  20
287.30017
  0
VERTEX
  5
446
  8
Layer_0
  10
494.48389
  20
287.57538
  0
VERTEX
  5
447
  8
Layer_0
  10
494.10095
  20
287.7832
  0
VERTEX
  5
448
  8
Layer_0
  10
493.67786
  20
287.91455
  0
VERTEX
  5
449
  8
Layer_0
  10
493.22357
  20
287.96039
  0
VERTEX
  5
44a
  8
Layer_0
  10
492.76929
  20
287.91455
  0
VERTEX
  5
44b
  8
Layer_0
  10
492.34613
  20
287.7832
  0
VERTEX
  5
44c
  8
Layer_0
  10
491.9632
  20
287.57538
  0
VERTEX
  5
44d
  8
Layer_0
  10
491.62952
  20
287.30017
  0
VERTEX
  5
44e
  8
Layer_0
  10
491.35425
  20
286.96655
  0
VERTEX
  5
44f
  8
Layer_0
  10
491.14642
  20
286.58362
  0
VERTEX
  5
450
  8
Layer_0
  10
491.01514
  20
286.16052
  0
VERTEX
  5
451
  8
Layer_0
  10
490.9693
  20
285.70618
  0
VERTEX
  5
452
  8
Layer_0
  10
491.01514
  20
285.25183
  0
VERTEX
  5
453
  8
Layer_0
  10
491.14642
  20
284.82874
  0
VERTEX
  5
454
  8
Layer_0
  10
491.35425
  20
284.4458
  0
VERTEX
  5
455
  8
Layer_0
  10
491.62952
  20
284.11218
  0
VERTEX
  5
456
  8
Layer_0
  10
491.9632
  20
283.83691
  0
VERTEX
  5
457
  8
Layer_0
  10
492.34613
  20
283.62903
  0
VERTEX
  5
458
  8
Layer_0
  10
492.76929
  20
283.49768
  0
VERTEX
  5
459
  8
Layer_0
  10
493.22357
  20
283.4519
  0
VERTEX
  5
45a
  8
Layer_0
  10
493.67786
  20
283.49768
  0
VERTEX
  5
45b
  8
Layer_0
  10
494.10095
  20
283.62903
  0
VERTEX
  5
45c
  8
Layer_0
  10
494.48389
  20
283.83691
  0
VERTEX
  5
45d
  8
Layer_0
  10
494.8175
  20
284.11218
  0
VERTEX
  5
45e
  8
Layer_0
  10
495.09277
  20
284.4458
  0
VERTEX
  5
45f
  8
Layer_0
  10
495.3006
  20
284.82874
  0
VERTEX
  5
460
  8
Layer_0
  10
495.43201
  20
285.25183
  0
VERTEX
  5
461
  8
Layer_0
  10
495.47778
  20
285.70618
  0
SEQEND
  0
POLYLINE
  5
463
  8
Layer_0
  62
0
  70
1
  66
1
  10
0
  20
0
  30
0
  0
VERTEX
  5
463
  8
Layer_0
  10
608.48669
  20
337.22577
  0
VERTEX
  5
464
  8
Layer_0
  10
608.44086
  20
337.68011
  0
VERTEX
  5
465
  8
Layer_0
  10
608.30951
  20
338.10327
  0
VERTEX
  5
466
  8
Layer_0
  10
608.10168
  20
338.48615
  0
VERTEX
  5
467
  8
Layer_0
  10
607.82642
  20
338.81976
  0
VERTEX
  5
468
  8
Layer_0
  10
607.4928
  20
339.09503
  0
VERTEX
  5
469
  8
Layer_0
  10
607.10986
  20
339.30286
  0
VERTEX
  5
46a
  8
Layer_0
  10
606.68677
  20
339.4342
  0
VERTEX
  5
46b
  8
Layer_0
  10
606.23242
  20
339.47998
  0
VERTEX
  5
46c
  8
Layer_0
  10
605.77808
  20
339.4342
  0
VERTEX
  5
46d
  8
Layer_0
  10
605.35498
  20
339.30286
  0
VERTEX
  5
46e
  8
Layer_0
  10
604.97205
  20
339.09503
  0
VERTEX
  5
46f
  8
Layer_0
  10
604.63843
  20
338.81976
  0
VERTEX
  5
470
  8
Layer_0
  10
604.36316
  20
338.48615
  0
VERTEX
  5
471
  8
Layer_0
  10
604.15527
  20
338.10327
  0
VERTEX
  5
472
  8
Layer_0
  10
604.02393
  20
337.68011
  0
VERTEX
  5
473
  8
Layer_0
  10
603.97815
  20
337.22577
  0
VERTEX
  5
474
  8
Layer_0
  10
604.02393
  20
336.77142
  0
VERTEX
  5
475
  8
Layer_0
  10
604.15527
  20
336.34827
  0
VERTEX
  5
476
  8
Layer_0
  10
604.36316
  20
335.96539
  0
VERTEX
  5
477
  8
Layer_0
  10
604.63843
  20
335.63177
  0
VERTEX
  5
478
  8
Layer_0
  10
604.97205
  20
335.35651
  0
VERTEX
  5
479
  8
Layer_0
  10
605.35498
  20
335.14868
  0
VERTEX
  5
47a
  8
Layer_0
  10
605.77808
  20
335.01733
  0
VERTEX
  5
47b
  8
Layer_0
  10
606.23242
  20
334.9715
  0
VERTEX
  5
47c
  8
Layer_0
  10
606.68677
  20
335.01733
  0
VERTEX
  5
47d
  8
Layer_0
  10
607.10986
  20
335.14868
  0
VERTEX
  5
47e
  8
Layer_0
  10
607.4928
  20
335.35651
  0
VERTEX
  5
47f
  8
Layer_0
  10
607.82642
  20
335.63177
  0
VERTEX
  5
480
  8
Layer_0
  10
608.10168
  20
335.96539
  0
VERTEX
  5
481
  8
Layer_0
  10
608.30951
  20
336.34827
  0
VERTEX
  5
482
  8
Layer_0
  10
608.44086
  20
336.77142
  0
VERTEX
  5
483
  8
Layer_0
  10
608.48669
  20
337.22577
  0
SEQEND
  0
POLYLINE
  5
485
  8
Layer_0
  62
0
  70
1
  66
1
  10
0
  20
0
  30
0
  0
VERTEX
  5
485
  8
Layer_0
  10
608.48663
  20
285.70612
  0
VERTEX
  5
486
  8
Layer_0
  10
608.4408
  20
286.1604
  0
VERTEX
  5
487
  8
Layer_0
  10
608.30945
  20
286.58356
  0
VERTEX
  5
488
  8
Layer_0
  10
608.10162
  20
286.96649
  0
VERTEX
  5
489
  8
Layer_0
  10
607.82635
  20
287.30005
  0
VERTEX
  5
48a
  8
Layer_0
  10
607.49274
  20
287.57532
  0
VERTEX
  5
48b
  8
Layer_0
  10
607.10986
  20
287.7832
  0
VERTEX
  5
48c
  8
Layer_0
  10
606.68671
  20
287.91455
  0
VERTEX
  5
48d
  8
Layer_0
  10
606.23242
  20
287.96033
  0
VERTEX
  5
48e
  8
Layer_0
  10
605.77808
  20
287.91455
  0
VERTEX
  5
48f
  8
Layer_0
  10
605.35492
  20
287.7832
  0
VERTEX
  5
490
  8
Layer_0
  10
604.97205
  20
287.57532
  0
VERTEX
  5
491
  8
Layer_0
  10
604.63843
  20
287.30005
  0
VERTEX
  5
492
  8
Layer_0
  10
604.36316
  20
286.96649
  0
VERTEX
  5
493
  8
Layer_0
  10
604.15527
  20
286.58356
  0
VERTEX
  5
494
  8
Layer_0
  10
604.02393
  20
286.1604
  0
VERTEX
  5
495
  8
Layer_0
  10
603.97815
  20
285.70612
  0
VERTEX
  5
496
  8
Layer_0
  10
604.02393
  20
285.25177
  0
VERTEX
  5
497
  8
Layer_0
  10
604.15527
  20
284.82861
  0
VERTEX
  5
498
  8
Layer_0
  10
604.36316
  20
284.44574
  0
VERTEX
  5
499
  8
Layer_0
  10
604.63843
  20
284.11212
  0
VERTEX
  5
49a
  8
Layer_0
  10
604.97205
  20
283.83685
  0
VERTEX
  5
49b
  8
Layer_0
  10
605.35492
  20
283.62903
  0
VERTEX
  5
49c
  8
Layer_0
  10
605.77808
  20
283.49768
  0
VERTEX
  5
49d
  8
Layer_0
  10
606.23242
  20
283.45184
  0
VERTEX
  5
49e
  8
Layer_0
  10
606.68671
  20
283.49768
  0
VERTEX
  5
49f
  8
Layer_0
  10
607.10986
  20
283.62903
  0
VERTEX
  5
4a0
  8
Layer_0
  10
607.49274
  20
283.83685
  0
VERTEX
  5
4a1
  8
Layer_0
  10
607.82635
  20
284.11212
  0
VERTEX
  5
4a2
  8
Layer_0
  10
608.10162
  20
284.44574
  0
VERTEX
  5
4a3
  8
Layer_0
  10
608.30945
  20
284.82861
  0
VERTEX
  5
4a4
  8
Layer_0
  10
608.4408
  20
285.25177
  0
VERTEX
  5
4a5
  8
Layer_0
  10
608.48663
  20
285.70612
  0
SEQEND
  0
POLYLINE
  5
4a7
  8
Layer_0
  62
0
  70
1
  66
1
  10
0
  20
0
  30
0
  0
VERTEX
  5
4a7
  8
Layer_0
  10
620.19714
  20
380.21118
  0
VERTEX
  5
4a8
  8
Layer_0
  10
620.17853
  20
380.229
  0
VERTEX
  5
4a9
  8
Layer_0
  10
620.12268
  20
380.27942
  0
VERTEX
  5
4aa
  8
Layer_0
  10
620.02966
  20
380.35767
  0
VERTEX
  5
4ab
  8
Layer_0
  10
619.89948
  20
380.45923
  0
VERTEX
  5
4ac
  8
Layer_0
  10
619.73206
  20
380.57935
  0
VERTEX
  5
4ad
  8
Layer_0
  10
619.5274
  20
380.7135
  0
VERTEX
  5
4ae
  8
Layer_0
  10
619.28552
  20
380.85693
  0
VERTEX
  5
4af
  8
Layer_0
  10
619.00647
  20
381.00494
  0
VERTEX
  5
4b0
  8
Layer_0
  10
618.69025
  20
381.15295
  0
VERTEX
  5
4b1
  8
Layer_0
  10
618.33679
  20
381.29639
  0
VERTEX
  5
4b2
  8
Layer_0
  10
617.94611
  20
381.43048
  0
VERTEX
  5
4b3
  8
Layer_0
  10
617.51819
  20
381.55066
  0
VERTEX
  5
4b4
  8
Layer_0
  10
617.0531
  20
381.65222
  0
VERTEX
  5
4b5
  8
Layer_0
  10
616.55084
  20
381.73047
  0
VERTEX
  5
4b6
  8
Layer_0
  10
616.01135
  20
381.78088
  0
VERTEX
  5
4b7
  8
Layer_0
  10
615.43463
  20
381.79871
  0
VERTEX
  5
4b8
  8
Layer_0
  10
494.78467
  20
381.79871
  0
VERTEX
  5
4b9
  8
Layer_0
  10
494.20801
  20
381.78088
  0
VERTEX
  5
4ba
  8
Layer_0
  10
493.66846
  20
381.73047
  0
VERTEX
  5
4bb
  8
Layer_0
  10
493.16614
  20
381.65222
  0
VERTEX
  5
4bc
  8
Layer_0
  10
492.70105
  20
381.55066
  0
VERTEX
  5
4bd
  8
Layer_0
  10
492.27319
  20
381.43048
  0
VERTEX
  5
4be
  8
Layer_0
  10
491.88245
  20
381.29639
  0
VERTEX
  5
4bf
  8
Layer_0
  10
491.52905
  20
381.15295
  0
VERTEX
  5
4c0
  8
Layer_0
  10
491.21277
  20
381.00494
  0
VERTEX
  5
4c1
  8
Layer_0
  10
490.93372
  20
380.85693
  0
VERTEX
  5
4c2
  8
Layer_0
  10
490.69189
  20
380.7135
  0
VERTEX
  5
4c3
  8
Layer_0
  10
490.4873
  20
380.57935
  0
VERTEX
  5
4c4
  8
Layer_0
  10
490.31982
  20
380.45923
  0
VERTEX
  5
4c5
  8
Layer_0
  10
490.18958
  20
380.35767
  0
VERTEX
  5
4c6
  8
Layer_0
  10
490.09656
  20
380.27942
  0
VERTEX
  5
4c7
  8
Layer_0
  10
490.04077
  20
380.229
  0
VERTEX
  5
4c8
  8
Layer_0
  10
490.02216
  20
380.21118
  0
VERTEX
  5
4c9
  8
Layer_0
  10
490.00433
  20
380.19257
  0
VERTEX
  5
4ca
  8
Layer_0
  10
489.95392
  20
380.13678
  0
VERTEX
  5
4cb
  8
Layer_0
  10
489.87561
  20
380.04376
  0
VERTEX
  5
4cc
  8
Layer_0
  10
489.77411
  20
379.91351
  0
VERTEX
  5
4cd
  8
Layer_0
  10
489.65393
  20
379.74609
  0
VERTEX
  5
4ce
  8
Layer_0
  10
489.51984
  20
379.54144
  0
VERTEX
  5
4cf
  8
Layer_0
  10
489.37646
  20
379.29962
  0
VERTEX
  5
4d0
  8
Layer_0
  10
489.22839
  20
379.02057
  0
VERTEX
  5
4d1
  8
Layer_0
  10
489.08032
  20
378.70428
  0
VERTEX
  5
4d2
  8
Layer_0
  10
488.93695
  20
378.35083
  0
VERTEX
  5
4d3
  8
Layer_0
  10
488.80286
  20
377.96014
  0
VERTEX
  5
4d4
  8
Layer_0
  10
488.68268
  20
377.53229
  0
VERTEX
  5
4d5
  8
Layer_0
  10
488.58118
  20
377.0672
  0
VERTEX
  5
4d6
  8
Layer_0
  10
488.50287
  20
376.56494
  0
VERTEX
  5
4d7
  8
Layer_0
  10
488.45245
  20
376.02539
  0
VERTEX
  5
4d8
  8
Layer_0
  10
488.43463
  20
375.44873
  0
VERTEX
  5
4d9
  8
Layer_0
  10
488.43463
  20
372.27368
  0
VERTEX
  5
4da
  8
Layer_0
  10
488.45245
  20
371.69696
  0
VERTEX
  5
4db
  8
Layer_0
  10
488.50287
  20
371.15747
  0
VERTEX
  5
4dc
  8
Layer_0
  10
488.58118
  20
370.65515
  0
VERTEX
  5
4dd
  8
Layer_0
  10
488.68268
  20
370.19006
  0
VERTEX
  5
4de
  8
Layer_0
  10
488.80286
  20
369.76221
  0
VERTEX
  5
4df
  8
Layer_0
  10
488.93695
  20
369.37158
  0
VERTEX
  5
4e0
  8
Layer_0
  10
489.08032
  20
369.01807
  0
VERTEX
  5
4e1
  8
Layer_0
  10
489.22839
  20
368.70178
  0
VERTEX
  5
4e2
  8
Layer_0
  10
489.37646
  20
368.42273
  0
VERTEX
  5
4e3
  8
Layer_0
  10
489.51984
  20
368.18091
  0
VERTEX
  5
4e4
  8
Layer_0
  10
489.65393
  20
367.97632
  0
VERTEX
  5
4e5
  8
Layer_0
  10
489.77411
  20
367.80884
  0
VERTEX
  5
4e6
  8
Layer_0
  10
489.87561
  20
367.67859
  0
VERTEX
  5
4e7
  8
Layer_0
  10
489.95392
  20
367.58557
  0
VERTEX
  5
4e8
  8
Layer_0
  10
490.00433
  20
367.52979
  0
VERTEX
  5
4e9
  8
Layer_0
  10
490.02216
  20
367.51123
  0
VERTEX
  5
4ea
  8
Layer_0
  10
490.04077
  20
367.49341
  0
VERTEX
  5
4eb
  8
Layer_0
  10
490.09656
  20
367.44299
  0
VERTEX
  5
4ec
  8
Layer_0
  10
490.18958
  20
367.36475
  0
VERTEX
  5
4ed
  8
Layer_0
  10
490.31982
  20
367.26318
  0
VERTEX
  5
4ee
  8
Layer_0
  10
490.4873
  20
367.14301
  0
VERTEX
  5
4ef
  8
Layer_0
  10
490.69189
  20
367.00891
  0
VERTEX
  5
4f0
  8
Layer_0
  10
490.93372
  20
366.86548
  0
VERTEX
  5
4f1
  8
Layer_0
  10
491.21277
  20
366.71747
  0
VERTEX
  5
4f2
  8
Layer_0
  10
491.52905
  20
366.56946
  0
VERTEX
  5
4f3
  8
Layer_0
  10
491.88245
  20
366.42603
  0
VERTEX
  5
4f4
  8
Layer_0
  10
492.27319
  20
366.29187
  0
VERTEX
  5
4f5
  8
Layer_0
  10
492.70105
  20
366.17175
  0
VERTEX
  5
4f6
  8
Layer_0
  10
493.16614
  20
366.07019
  0
VERTEX
  5
4f7
  8
Layer_0
  10
493.66846
  20
365.99194
  0
VERTEX
  5
4f8
  8
Layer_0
  10
494.20801
  20
365.94153
  0
VERTEX
  5
4f9
  8
Layer_0
  10
494.78467
  20
365.92371
  0
VERTEX
  5
4fa
  8
Layer_0
  10
615.43463
  20
365.92371
  0
VERTEX
  5
4fb
  8
Layer_0
  10
616.01135
  20
365.94153
  0
VERTEX
  5
4fc
  8
Layer_0
  10
616.55084
  20
365.99188
  0
VERTEX
  5
4fd
  8
Layer_0
  10
617.0531
  20
366.07019
  0
VERTEX
  5
4fe
  8
Layer_0
  10
617.51819
  20
366.17175
  0
VERTEX
  5
4ff
  8
Layer_0
  10
617.94611
  20
366.29187
  0
VERTEX
  5
500
  8
Layer_0
  10
618.33679
  20
366.42596
  0
VERTEX
  5
501
  8
Layer_0
  10
618.69025
  20
366.56934
  0
VERTEX
  5
502
  8
Layer_0
  10
619.00647
  20
366.71741
  0
VERTEX
  5
503
  8
Layer_0
  10
619.28552
  20
366.86548
  0
VERTEX
  5
504
  8
Layer_0
  10
619.5274
  20
367.00885
  0
VERTEX
  5
505
  8
Layer_0
  10
619.73206
  20
367.14294
  0
VERTEX
  5
506
  8
Layer_0
  10
619.89948
  20
367.26312
  0
VERTEX
  5
507
  8
Layer_0
  10
620.02966
  20
367.36462
  0
VERTEX
  5
508
  8
Layer_0
  10
620.12268
  20
367.44293
  0
VERTEX
  5
509
  8
Layer_0
  10
620.17853
  20
367.49335
  0
VERTEX
  5
50a
  8
Layer_0
  10
620.19714
  20
367.51117
  0
VERTEX
  5
50b
  8
Layer_0
  10
620.21497
  20
367.52979
  0
VERTEX
  5
50c
  8
Layer_0
  10
620.26532
  20
367.58557
  0
VERTEX
  5
50d
  8
Layer_0
  10
620.34363
  20
367.67859
  0
VERTEX
  5
50e
  8
Layer_0
  10
620.44519
  20
367.80884
  0
VERTEX
  5
50f
  8
Layer_0
  10
620.56531
  20
367.97626
  0
VERTEX
  5
510
  8
Layer_0
  10
620.6994
  20
368.18091
  0
VERTEX
  5
511
  8
Layer_0
  10
620.84277
  20
368.42273
  0
VERTEX
  5
512
  8
Layer_0
  10
620.99084
  20
368.70178
  0
VERTEX
  5
513
  8
Layer_0
  10
621.13892
  20
369.01807
  0
VERTEX
  5
514
  8
Layer_0
  10
621.28229
  20
369.37152
  0
VERTEX
  5
515
  8
Layer_0
  10
621.41638
  20
369.76221
  0
VERTEX
  5
516
  8
Layer_0
  10
621.53656
  20
370.19006
  0
VERTEX
  5
517
  8
Layer_0
  10
621.63806
  20
370.65515
  0
VERTEX
  5
518
  8
Layer_0
  10
621.71637
  20
371.15747
  0
VERTEX
  5
519
  8
Layer_0
  10
621.76678
  20
371.69696
  0
VERTEX
  5
51a
  8
Layer_0
  10
621.78461
  20
372.27368
  0
VERTEX
  5
51b
  8
Layer_0
  10
621.78461
  20
375.44867
  0
VERTEX
  5
51c
  8
Layer_0
  10
621.76678
  20
376.02539
  0
VERTEX
  5
51d
  8
Layer_0
  10
621.71637
  20
376.56488
  0
VERTEX
  5
51e
  8
Layer_0
  10
621.63806
  20
377.0672
  0
VERTEX
  5
51f
  8
Layer_0
  10
621.53656
  20
377.53229
  0
VERTEX
  5
520
  8
Layer_0
  10
621.41638
  20
377.96014
  0
VERTEX
  5
521
  8
Layer_0
  10
621.28229
  20
378.35083
  0
VERTEX
  5
522
  8
Layer_0
  10
621.13892
  20
378.70428
  0
VERTEX
  5
523
  8
Layer_0
  10
620.99084
  20
379.02057
  0
VERTEX
  5
524
  8
Layer_0
  10
620.84277
  20
379.29962
  0
VERTEX
  5
525
  8
Layer_0
  10
620.6994
  20
379.54144
  0
VERTEX
  5
526
  8
Layer_0
  10
620.56531
  20
379.74609
  0
VERTEX
  5
527
  8
Layer_0
  10
620.44519
  20
379.91351
  0
VERTEX
  5
528
  8
Layer_0
  10
620.34363
  20
380.04376
  0
VERTEX
  5
529
  8
Layer_0
  10
620.26532
  20
380.13678
  0
VERTEX
  5
52a
  8
Layer_0
  10
620.21497
  20
380.19257
  0
VERTEX
  5
52b
  8
Layer_0
  10
620.19714
  20
380.21118
  0
SEQEND
  0
POLYLINE
  5
52d
  8
Layer_0
  62
0
  70
1
  66
1
  10
0
  20
0
  30
0
  0
VERTEX
  5
52d
  8
Layer_0
  10
618.74194
  20
285.80908
  0
VERTEX
  5
52e
  8
Layer_0
  10
619.05609
  20
285.84076
  0
VERTEX
  5
52f
  8
Layer_0
  10
619.34869
  20
285.93164
  0
VERTEX
  5
530
  8
Layer_0
  10
619.61353
  20
286.07532
  0
VERTEX
  5
531
  8
Layer_0
  10
619.84424
  20
286.26569
  0
VERTEX
  5
532
  8
Layer_0
  10
620.03461
  20
286.4964
  0
VERTEX
  5
533
  8
Layer_0
  10
620.17834
  20
286.76123
  0
VERTEX
  5
534
  8
Layer_0
  10
620.26917
  20
287.05383
  0
VERTEX
  5
535
  8
Layer_0
  10
620.30078
  20
287.36798
  0
VERTEX
  5
536
  8
Layer_0
  10
620.26917
  20
287.68213
  0
VERTEX
  5
537
  8
Layer_0
  10
620.17834
  20
287.97473
  0
VERTEX
  5
538
  8
Layer_0
  10
620.03461
  20
288.23956
  0
VERTEX
  5
539
  8
Layer_0
  10
619.84424
  20
288.47028
  0
VERTEX
  5
53a
  8
Layer_0
  10
619.61353
  20
288.66064
  0
VERTEX
  5
53b
  8
Layer_0
  10
619.34869
  20
288.80432
  0
VERTEX
  5
53c
  8
Layer_0
  10
619.05609
  20
288.8952
  0
VERTEX
  5
53d
  8
Layer_0
  10
618.74194
  20
288.92688
  0
VERTEX
  5
53e
  8
Layer_0
  10
618.42773
  20
288.8952
  0
VERTEX
  5
53f
  8
Layer_0
  10
618.13513
  20
288.80432
  0
VERTEX
  5
540
  8
Layer_0
  10
617.8703
  20
288.66064
  0
VERTEX
  5
541
  8
Layer_0
  10
617.63959
  20
288.47028
  0
VERTEX
  5
542
  8
Layer_0
  10
617.44922
  20
288.23956
  0
VERTEX
  5
543
  8
Layer_0
  10
617.30554
  20
287.97473
  0
VERTEX
  5
544
  8
Layer_0
  10
617.21466
  20
287.68213
  0
VERTEX
  5
545
  8
Layer_0
  10
617.18298
  20
287.36798
  0
VERTEX
  5
546
  8
Layer_0
  10
617.21466
  20
287.05383
  0
VERTEX
  5
547
  8
Layer_0
  10
617.30554
  20
286.76123
  0
VERTEX
  5
548
  8
Layer_0
  10
617.44922
  20
286.4964
  0
VERTEX
  5
549
  8
Layer_0
  10
617.63959
  20
286.26569
  0
VERTEX
  5
54a
  8
Layer_0
  10
617.8703
  20
286.07532
  0
VERTEX
  5
54b
  8
Layer_0
  10
618.13513
  20
285.93164
  0
VERTEX
  5
54c
  8
Layer_0
  10
618.42773
  20
285.84076
  0
VERTEX
  5
54d
  8
Layer_0
  10
618.74194
  20
285.80908
  0
SEQEND
  0
POLYLINE
  5
54f
  8
Layer_0
  62
0
  70
1
  66
1
  10
0
  20
0
  30
0
  0
VERTEX
  5
54f
  8
Layer_0
  10
618.76892
  20
349.73511
  0
VERTEX
  5
550
  8
Layer_0
  10
619.08307
  20
349.76672
  0
VERTEX
  5
551
  8
Layer_0
  10
619.37573
  20
349.85754
  0
VERTEX
  5
552
  8
Layer_0
  10
619.6405
  20
350.00128
  0
VERTEX
  5
553
  8
Layer_0
  10
619.87122
  20
350.19165
  0
VERTEX
  5
554
  8
Layer_0
  10
620.06158
  20
350.42236
  0
VERTEX
  5
555
  8
Layer_0
  10
620.20532
  20
350.68719
  0
VERTEX
  5
556
  8
Layer_0
  10
620.29614
  20
350.9798
  0
VERTEX
  5
557
  8
Layer_0
  10
620.32782
  20
351.29395
  0
VERTEX
  5
558
  8
Layer_0
  10
620.29614
  20
351.60815
  0
VERTEX
  5
559
  8
Layer_0
  10
620.20532
  20
351.90076
  0
VERTEX
  5
55a
  8
Layer_0
  10
620.06158
  20
352.16559
  0
VERTEX
  5
55b
  8
Layer_0
  10
619.87122
  20
352.3963
  0
VERTEX
  5
55c
  8
Layer_0
  10
619.6405
  20
352.58667
  0
VERTEX
  5
55d
  8
Layer_0
  10
619.37573
  20
352.73035
  0
VERTEX
  5
55e
  8
Layer_0
  10
619.08307
  20
352.82123
  0
VERTEX
  5
55f
  8
Layer_0
  10
618.76892
  20
352.85291
  0
VERTEX
  5
560
  8
Layer_0
  10
618.45477
  20
352.82123
  0
VERTEX
  5
561
  8
Layer_0
  10
618.16211
  20
352.73035
  0
VERTEX
  5
562
  8
Layer_0
  10
617.89734
  20
352.58667
  0
VERTEX
  5
563
  8
Layer_0
  10
617.66663
  20
352.3963
  0
VERTEX
  5
564
  8
Layer_0
  10
617.47626
  20
352.16559
  0
VERTEX
  5
565
  8
Layer_0
  10
617.33252
  20
351.90076
  0
VERTEX
  5
566
  8
Layer_0
  10
617.2417
  20
351.60815
  0
VERTEX
  5
567
  8
Layer_0
  10
617.21002
  20
351.29395
  0
VERTEX
  5
568
  8
Layer_0
  10
617.2417
  20
350.9798
  0
VERTEX
  5
569
  8
Layer_0
  10
617.33252
  20
350.68719
  0
VERTEX
  5
56a
  8
Layer_0
  10
617.47626
  20
350.42236
  0
VERTEX
  5
56b
  8
Layer_0
  10
617.66663
  20
350.19165
  0
VERTEX
  5
56c
  8
Layer_0
  10
617.89734
  20
350.00128
  0
VERTEX
  5
56d
  8
Layer_0
  10
618.16211
  20
349.85754
  0
VERTEX
  5
56e
  8
Layer_0
  10
618.45477
  20
349.76672
  0
VERTEX
  5
56f
  8
Layer_0
  10
618.76892
  20
349.73511
  0
SEQEND
  0
POLYLINE
  5
571
  8
Layer_0
  62
0
  70
1
  66
1
  10
0
  20
0
  30
0
  0
VERTEX
  5
571
  8
Layer_0
  10
495.94196
  20
263.37396
  0
VERTEX
  5
572
  8
Layer_0
  10
495.8963
  20
263.82739
  0
VERTEX
  5
573
  8
Layer_0
  10
495.76514
  20
264.24976
  0
VERTEX
  5
574
  8
Layer_0
  10
495.55762
  20
264.63196
  0
VERTEX
  5
575
  8
Layer_0
  10
495.2829
  20
264.96497
  0
VERTEX
  5
576
  8
Layer_0
  10
494.94995
  20
265.23969
  0
VERTEX
  5
577
  8
Layer_0
  10
494.56775
  20
265.44714
  0
VERTEX
  5
578
  8
Layer_0
  10
494.14539
  20
265.57825
  0
VERTEX
  5
579
  8
Layer_0
  10
493.69196
  20
265.62396
  0
VERTEX
  5
57a
  8
Layer_0
  10
493.23853
  20
265.57825
  0
VERTEX
  5
57b
  8
Layer_0
  10
492.81616
  20
265.44714
  0
VERTEX
  5
57c
  8
Layer_0
  10
492.43396
  20
265.23969
  0
VERTEX
  5
57d
  8
Layer_0
  10
492.10101
  20
264.96497
  0
VERTEX
  5
57e
  8
Layer_0
  10
491.82629
  20
264.63196
  0
VERTEX
  5
57f
  8
Layer_0
  10
491.61877
  20
264.24976
  0
VERTEX
  5
580
  8
Layer_0
  10
491.48761
  20
263.82739
  0
VERTEX
  5
581
  8
Layer_0
  10
491.44196
  20
263.37396
  0
VERTEX
  5
582
  8
Layer_0
  10
491.48761
  20
262.92053
  0
VERTEX
  5
583
  8
Layer_0
  10
491.61877
  20
262.49817
  0
VERTEX
  5
584
  8
Layer_0
  10
491.82629
  20
262.11597
  0
VERTEX
  5
585
  8
Layer_0
  10
492.10101
  20
261.78296
  0
VERTEX
  5
586
  8
Layer_0
  10
492.43396
  20
261.50824
  0
VERTEX
  5
587
  8
Layer_0
  10
492.81616
  20
261.30078
  0
VERTEX
  5
588
  8
Layer_0
  10
493.23853
  20
261.16968
  0
VERTEX
  5
589
  8
Layer_0
  10
493.69196
  20
261.12396
  0
VERTEX
  5
58a
  8
Layer_0
  10
494.14539
  20
261.16968
  0
VERTEX
  5
58b
  8
Layer_0
  10
494.56775
  20
261.30078
  0
VERTEX
  5
58c
  8
Layer_0
  10
494.94995
  20
261.50824
  0
VERTEX
  5
58d
  8
Layer_0
  10
495.2829
  20
261.78296
  0
VERTEX
  5
58e
  8
Layer_0
  10
495.55762
  20
262.11597
  0
VERTEX
  5
58f
  8
Layer_0
  10
495.76514
  20
262.49817
  0
VERTEX
  5
590
  8
Layer_0
  10
495.8963
  20
262.92053
  0
VERTEX
  5
591
  8
Layer_0
  10
495.94196
  20
263.37396
  0
SEQEND
  0
POLYLINE
  5
593
  8
Layer_0
  62
0
  70
1
  66
1
  10
0
  20
0
  30
0
  0
VERTEX
  5
593
  8
Layer_0
  10
613.94196
  20
263.37396
  0
VERTEX
  5
594
  8
Layer_0
  10
613.89624
  20
263.82739
  0
VERTEX
  5
595
  8
Layer_0
  10
613.76514
  20
264.24976
  0
VERTEX
  5
596
  8
Layer_0
  10
613.55768
  20
264.63196
  0
VERTEX
  5
597
  8
Layer_0
  10
613.28296
  20
264.96497
  0
VERTEX
  5
598
  8
Layer_0
  10
612.94995
  20
265.23969
  0
VERTEX
  5
599
  8
Layer_0
  10
612.56775
  20
265.44714
  0
VERTEX
  5
59a
  8
Layer_0
  10
612.14539
  20
265.57825
  0
VERTEX
  5
59b
  8
Layer_0
  10
611.69196
  20
265.62396
  0
VERTEX
  5
59c
  8
Layer_0
  10
611.23853
  20
265.57825
  0
VERTEX
  5
59d
  8
Layer_0
  10
610.81616
  20
265.44714
  0
VERTEX
  5
59e
  8
Layer_0
  10
610.43396
  20
265.23969
  0
VERTEX
  5
59f
  8
Layer_0
  10
610.10095
  20
264.96497
  0
VERTEX
  5
5a0
  8
Layer_0
  10
609.82623
  20
264.63196
  0
VERTEX
  5
5a1
  8
Layer_0
  10
609.61877
  20
264.24976
  0
VERTEX
  5
5a2
  8
Layer_0
  10
609.48767
  20
263.82739
  0
VERTEX
  5
5a3
  8
Layer_0
  10
609.44196
  20
263.37396
  0
VERTEX
  5
5a4
  8
Layer_0
  10
609.48767
  20
262.92053
  0
VERTEX
  5
5a5
  8
Layer_0
  10
609.61877
  20
262.49817
  0
VERTEX
  5
5a6
  8
Layer_0
  10
609.82623
  20
262.11597
  0
VERTEX
  5
5a7
  8
Layer_0
  10
610.10095
  20
261.78296
  0
VERTEX
  5
5a8
  8
Layer_0
  10
610.43396
  20
261.50824
  0
VERTEX
  5
5a9
  8
Layer_0
  10
610.81616
  20
261.30078
  0
VERTEX
  5
5aa
  8
Layer_0
  10
611.23853
  20
261.16968
  0
VERTEX
  5
5ab
  8
Layer_0
  10
611.69196
  20
261.12396
  0
VERTEX
  5
5ac
  8
Layer_0
  10
612.14539
  20
261.16968
  0
VERTEX
  5
5ad
  8
Layer_0
  10
612.56775
  20
261.30078
  0
VERTEX
  5
5ae
  8
Layer_0
  10
612.94995
  20
261.50824
  0
VERTEX
  5
5af
  8
Layer_0
  10
613.28296
  20
261.78296
  0
VERTEX
  5
5b0
  8
Layer_0
  10
613.55768
  20
262.11597
  0
VERTEX
  5
5b1
  8
Layer_0
  10
613.76514
  20
262.49817
  0
VERTEX
  5
5b2
  8
Layer_0
  10
613.89624
  20
262.92053
  0
VERTEX
  5
5b3
  8
Layer_0
  10
613.94196
  20
263.37396
  0
SEQEND
  0
POLYLINE
  5
5b5
  8
Layer_0
  62
0
  70
1
  66
1
  10
0
  20
0
  30
0
  0
VERTEX
  5
5b5
  8
Layer_0
  10
612.22095
  20
327.68201
  0
VERTEX
  5
5b6
  8
Layer_0
  10
612.20032
  20
328.09106
  0
VERTEX
  5
5b7
  8
Layer_0
  10
612.13977
  20
328.48828
  0
VERTEX
  5
5b8
  8
Layer_0
  10
612.0412
  20
328.87158
  0
VERTEX
  5
5b9
  8
Layer_0
  10
611.90674
  20
329.23914
  0
VERTEX
  5
5ba
  8
Layer_0
  10
611.7384
  20
329.58875
  0
VERTEX
  5
5bb
  8
Layer_0
  10
611.53802
  20
329.91852
  0
VERTEX
  5
5bc
  8
Layer_0
  10
611.30774
  20
330.22644
  0
VERTEX
  5
5bd
  8
Layer_0
  10
611.04962
  20
330.51044
  0
VERTEX
  5
5be
  8
Layer_0
  10
610.76556
  20
330.76855
  0
VERTEX
  5
5bf
  8
Layer_0
  10
610.45764
  20
330.99878
  0
VERTEX
  5
5c0
  8
Layer_0
  10
610.12781
  20
331.19916
  0
VERTEX
  5
5c1
  8
Layer_0
  10
609.77814
  20
331.36755
  0
VERTEX
  5
5c2
  8
Layer_0
  10
609.41058
  20
331.50208
  0
VERTEX
  5
5c3
  8
Layer_0
  10
609.02722
  20
331.60065
  0
VERTEX
  5
5c4
  8
Layer_0
  10
608.63
  20
331.66125
  0
VERTEX
  5
5c5
  8
Layer_0
  10
608.22095
  20
331.68201
  0
VERTEX
  5
5c6
  8
Layer_0
  10
600.01294
  20
331.68201
  0
VERTEX
  5
5c7
  8
Layer_0
  10
600.01294
  20
335.77802
  0
VERTEX
  5
5c8
  8
Layer_0
  10
599.99438
  20
336.17371
  0
VERTEX
  5
5c9
  8
Layer_0
  10
599.93726
  20
336.56287
  0
VERTEX
  5
5ca
  8
Layer_0
  10
599.84265
  20
336.94263
  0
VERTEX
  5
5cb
  8
Layer_0
  10
599.71155
  20
337.31049
  0
VERTEX
  5
5cc
  8
Layer_0
  10
599.54517
  20
337.66376
  0
VERTEX
  5
5cd
  8
Layer_0
  10
599.34448
  20
337.99982
  0
VERTEX
  5
5ce
  8
Layer_0
  10
599.1106
  20
338.31604
  0
VERTEX
  5
5cf
  8
Layer_0
  10
598.84473
  20
338.60968
  0
VERTEX
  5
5d0
  8
Layer_0
  10
598.55103
  20
338.87549
  0
VERTEX
  5
5d1
  8
Layer_0
  10
598.23486
  20
339.10931
  0
VERTEX
  5
5d2
  8
Layer_0
  10
597.89874
  20
339.30994
  0
VERTEX
  5
5d3
  8
Layer_0
  10
597.54547
  20
339.47632
  0
VERTEX
  5
5d4
  8
Layer_0
  10
597.17761
  20
339.60742
  0
VERTEX
  5
5d5
  8
Layer_0
  10
596.79779
  20
339.70215
  0
VERTEX
  5
5d6
  8
Layer_0
  10
596.40869
  20
339.7594
  0
VERTEX
  5
5d7
  8
Layer_0
  10
596.01294
  20
339.77802
  0
VERTEX
  5
5d8
  8
Layer_0
  10
503.67694
  20
339.77802
  0
VERTEX
  5
5d9
  8
Layer_0
  10
503.26794
  20
339.75708
  0
VERTEX
  5
5da
  8
Layer_0
  10
502.87079
  20
339.69629
  0
VERTEX
  5
5db
  8
Layer_0
  10
502.48749
  20
339.5976
  0
VERTEX
  5
5dc
  8
Layer_0
  10
502.11993
  20
339.46301
  0
VERTEX
  5
5dd
  8
Layer_0
  10
501.7702
  20
339.29449
  0
VERTEX
  5
5de
  8
Layer_0
  10
501.44043
  20
339.09418
  0
VERTEX
  5
5df
  8
Layer_0
  10
501.13245
  20
338.86395
  0
VERTEX
  5
5e0
  8
Layer_0
  10
500.84839
  20
338.60583
  0
VERTEX
  5
5e1
  8
Layer_0
  10
500.59021
  20
338.32184
  0
VERTEX
  5
5e2
  8
Layer_0
  10
500.35992
  20
338.01398
  0
VERTEX
  5
5e3
  8
Layer_0
  10
500.15961
  20
337.68433
  0
VERTEX
  5
5e4
  8
Layer_0
  10
499.99115
  20
337.33472
  0
VERTEX
  5
5e5
  8
Layer_0
  10
499.85669
  20
336.96735
  0
VERTEX
  5
5e6
  8
Layer_0
  10
499.75812
  20
336.58411
  0
VERTEX
  5
5e7
  8
Layer_0
  10
499.69751
  20
336.18695
  0
VERTEX
  5
5e8
  8
Layer_0
  10
499.67694
  20
335.77802
  0
VERTEX
  5
5e9
  8
Layer_0
  10
499.67694
  20
331.68201
  0
VERTEX
  5
5ea
  8
Layer_0
  10
494.91693
  20
331.68201
  0
VERTEX
  5
5eb
  8
Layer_0
  10
494.50824
  20
331.66064
  0
VERTEX
  5
5ec
  8
Layer_0
  10
494.11145
  20
331.59949
  0
VERTEX
  5
5ed
  8
Layer_0
  10
493.72852
  20
331.50049
  0
VERTEX
  5
5ee
  8
Layer_0
  10
493.36139
  20
331.36572
  0
VERTEX
  5
5ef
  8
Layer_0
  10
493.01208
  20
331.19708
  0
VERTEX
  5
5f0
  8
Layer_0
  10
492.68268
  20
330.99664
  0
VERTEX
  5
5f1
  8
Layer_0
  10
492.37506
  20
330.76636
  0
VERTEX
  5
5f2
  8
Layer_0
  10
492.09125
  20
330.5083
  0
VERTEX
  5
5f3
  8
Layer_0
  10
491.83325
  20
330.22443
  0
VERTEX
  5
5f4
  8
Layer_0
  10
491.60303
  20
329.91669
  0
VERTEX
  5
5f5
  8
Layer_0
  10
491.40259
  20
329.58716
  0
VERTEX
  5
5f6
  8
Layer_0
  10
491.23395
  20
329.23779
  0
VERTEX
  5
5f7
  8
Layer_0
  10
491.09906
  20
328.87061
  0
VERTEX
  5
5f8
  8
Layer_0
  10
490.99988
  20
328.48755
  0
VERTEX
  5
5f9
  8
Layer_0
  10
490.93848
  20
328.0907
  0
VERTEX
  5
5fa
  8
Layer_0
  10
490.91693
  20
327.68201
  0
VERTEX
  5
5fb
  8
Layer_0
  10
490.91693
  20
295.68201
  0
VERTEX
  5
5fc
  8
Layer_0
  10
490.93738
  20
295.27295
  0
VERTEX
  5
5fd
  8
Layer_0
  10
490.99768
  20
294.87567
  0
VERTEX
  5
5fe
  8
Layer_0
  10
491.09607
  20
294.49231
  0
VERTEX
  5
5ff
  8
Layer_0
  10
491.23047
  20
294.12476
  0
VERTEX
  5
600
  8
Layer_0
  10
491.39886
  20
293.77502
  0
VERTEX
  5
601
  8
Layer_0
  10
491.59918
  20
293.44519
  0
VERTEX
  5
602
  8
Layer_0
  10
491.82947
  20
293.13727
  0
VERTEX
  5
603
  8
Layer_0
  10
492.08765
  20
292.85327
  0
VERTEX
  5
604
  8
Layer_0
  10
492.37177
  20
292.59515
  0
VERTEX
  5
605
  8
Layer_0
  10
492.67981
  20
292.36493
  0
VERTEX
  5
606
  8
Layer_0
  10
493.00964
  20
292.16455
  0
VERTEX
  5
607
  8
Layer_0
  10
493.35944
  20
291.99622
  0
VERTEX
  5
608
  8
Layer_0
  10
493.72705
  20
291.86176
  0
VERTEX
  5
609
  8
Layer_0
  10
494.11053
  20
291.76318
  0
VERTEX
  5
60a
  8
Layer_0
  10
494.50781
  20
291.70264
  0
VERTEX
  5
60b
  8
Layer_0
  10
494.91693
  20
291.68201
  0
VERTEX
  5
60c
  8
Layer_0
  10
499.67694
  20
291.68201
  0
VERTEX
  5
60d
  8
Layer_0
  10
499.67694
  20
287.15399
  0
VERTEX
  5
60e
  8
Layer_0
  10
499.69885
  20
286.74561
  0
VERTEX
  5
60f
  8
Layer_0
  10
499.76038
  20
286.349
  0
VERTEX
  5
610
  8
Layer_0
  10
499.85962
  20
285.96625
  0
VERTEX
  5
611
  8
Layer_0
  10
499.99463
  20
285.59937
  0
VERTEX
  5
612
  8
Layer_0
  10
500.16339
  20
285.25024
  0
VERTEX
  5
613
  8
Layer_0
  10
500.36389
  20
284.9209
  0
VERTEX
  5
614
  8
Layer_0
  10
500.59424
  20
284.6134
  0
VERTEX
  5
615
  8
Layer_0
  10
500.85223
  20
284.32959
  0
VERTEX
  5
616
  8
Layer_0
  10
501.13605
  20
284.07159
  0
VERTEX
  5
617
  8
Layer_0
  10
501.4436
  20
283.84137
  0
VERTEX
  5
618
  8
Layer_0
  10
501.77295
  20
283.64087
  0
VERTEX
  5
619
  8
Layer_0
  10
502.12219
  20
283.47211
  0
VERTEX
  5
61a
  8
Layer_0
  10
502.48907
  20
283.33704
  0
VERTEX
  5
61b
  8
Layer_0
  10
502.87189
  20
283.23767
  0
VERTEX
  5
61c
  8
Layer_0
  10
503.26843
  20
283.17596
  0
VERTEX
  5
61d
  8
Layer_0
  10
503.67694
  20
283.15399
  0
VERTEX
  5
61e
  8
Layer_0
  10
596.01294
  20
283.15399
  0
VERTEX
  5
61f
  8
Layer_0
  10
596.42188
  20
283.17487
  0
VERTEX
  5
620
  8
Layer_0
  10
596.81897
  20
283.23566
  0
VERTEX
  5
621
  8
Layer_0
  10
597.20221
  20
283.33435
  0
VERTEX
  5
622
  8
Layer_0
  10
597.5697
  20
283.46893
  0
VERTEX
  5
623
  8
Layer_0
  10
597.91931
  20
283.63745
  0
VERTEX
  5
624
  8
Layer_0
  10
598.24908
  20
283.83783
  0
VERTEX
  5
625
  8
Layer_0
  10
598.55701
  20
284.06812
  0
VERTEX
  5
626
  8
Layer_0
  10
598.84106
  20
284.32623
  0
VERTEX
  5
627
  8
Layer_0
  10
599.09924
  20
284.61023
  0
VERTEX
  5
628
  8
Layer_0
  10
599.32953
  20
284.91809
  0
VERTEX
  5
629
  8
Layer_0
  10
599.52991
  20
285.2478
  0
VERTEX
  5
62a
  8
Layer_0
  10
599.69836
  20
285.59741
  0
VERTEX
  5
62b
  8
Layer_0
  10
599.83295
  20
285.96478
  0
VERTEX
  5
62c
  8
Layer_0
  10
599.93152
  20
286.34802
  0
VERTEX
  5
62d
  8
Layer_0
  10
599.99219
  20
286.74512
  0
VERTEX
  5
62e
  8
Layer_0
  10
600.01294
  20
287.15399
  0
VERTEX
  5
62f
  8
Layer_0
  10
600.01294
  20
291.68201
  0
VERTEX
  5
630
  8
Layer_0
  10
608.22095
  20
291.68201
  0
VERTEX
  5
631
  8
Layer_0
  10
608.61682
  20
291.70038
  0
VERTEX
  5
632
  8
Layer_0
  10
609.00598
  20
291.75739
  0
VERTEX
  5
633
  8
Layer_0
  10
609.38599
  20
291.85187
  0
VERTEX
  5
634
  8
Layer_0
  10
609.75403
  20
291.98279
  0
VERTEX
  5
635
  8
Layer_0
  10
610.10748
  20
292.14905
  0
VERTEX
  5
636
  8
Layer_0
  10
610.44373
  20
292.34961
  0
VERTEX
  5
637
  8
Layer_0
  10
610.76001
  20
292.58337
  0
VERTEX
  5
638
  8
Layer_0
  10
611.05383
  20
292.8493
  0
VERTEX
  5
639
  8
Layer_0
  10
611.3197
  20
293.14307
  0
VERTEX
  5
63a
  8
Layer_0
  10
611.55353
  20
293.45935
  0
VERTEX
  5
63b
  8
Layer_0
  10
611.75409
  20
293.79553
  0
VERTEX
  5
63c
  8
Layer_0
  10
611.92041
  20
294.14899
  0
VERTEX
  5
63d
  8
Layer_0
  10
612.05133
  20
294.51703
  0
VERTEX
  5
63e
  8
Layer_0
  10
612.14575
  20
294.89697
  0
VERTEX
  5
63f
  8
Layer_0
  10
612.2027
  20
295.28613
  0
VERTEX
  5
640
  8
Layer_0
  10
612.22095
  20
295.68201
  0
VERTEX
  5
641
  8
Layer_0
  10
612.22095
  20
327.68201
  0
SEQEND
  0
POLYLINE
  5
643
  8
Layer_0
  62
0
  70
1
  66
1
  10
0
  20
0
  30
0
  0
VERTEX
  5
643
  8
Layer_0
  10
812.88
  20
593.74005
  0
VERTEX
  5
644
  8
Layer_0
  10
812.91229
  20
593.41962
  0
VERTEX
  5
645
  8
Layer_0
  10
813.00488
  20
593.12115
  0
VERTEX
  5
646
  8
Layer_0
  10
813.15149
  20
592.85107
  0
VERTEX
  5
647
  8
Layer_0
  10
813.3457
  20
592.61572
  0
VERTEX
  5
648
  8
Layer_0
  10
813.58099
  20
592.42157
  0
VERTEX
  5
649
  8
Layer_0
  10
813.85107
  20
592.27496
  0
VERTEX
  5
64a
  8
Layer_0
  10
814.14954
  20
592.18231
  0
VERTEX
  5
64b
  8
Layer_0
  10
814.46997
  20
592.15002
  0
VERTEX
  5
64c
  8
Layer_0
  10
814.79041
  20
592.18231
  0
VERTEX
  5
64d
  8
Layer_0
  10
815.08887
  20
592.27496
  0
VERTEX
  5
64e
  8
Layer_0
  10
815.35901
  20
592.42157
  0
VERTEX
  5
64f
  8
Layer_0
  10
815.5943
  20
592.61572
  0
VERTEX
  5
650
  8
Layer_0
  10
815.78845
  20
592.85107
  0
VERTEX
  5
651
  8
Layer_0
  10
815.93506
  20
593.12115
  0
VERTEX
  5
652
  8
Layer_0
  10
816.02771
  20
593.41962
  0
VERTEX
  5
653
  8
Layer_0
  10
816.06
  20
593.74005
  0
VERTEX
  5
654
  8
Layer_0
  10
816.02771
  20
594.06049
  0
VERTEX
  5
655
  8
Layer_0
  10
815.93506
  20
594.35895
  0
VERTEX
  5
656
  8
Layer_0
  10
815.78845
  20
594.62903
  0
VERTEX
  5
657
  8
Layer_0
  10
815.5943
  20
594.86432
  0
VERTEX
  5
658
  8
Layer_0
  10
815.35901
  20
595.05847
  0
VERTEX
  5
659
  8
Layer_0
  10
815.08887
  20
595.20508
  0
VERTEX
  5
65a
  8
Layer_0
  10
814.79041
  20
595.29773
  0
VERTEX
  5
65b
  8
Layer_0
  10
814.46997
  20
595.33002
  0
VERTEX
  5
65c
  8
Layer_0
  10
814.14954
  20
595.29773
  0
VERTEX
  5
65d
  8
Layer_0
  10
813.85107
  20
595.20508
  0
VERTEX
  5
65e
  8
Layer_0
  10
813.58099
  20
595.05847
  0
VERTEX
  5
65f
  8
Layer_0
  10
813.3457
  20
594.86432
  0
VERTEX
  5
660
  8
Layer_0
  10
813.15149
  20
594.62903
  0
VERTEX
  5
661
  8
Layer_0
  10
813.00488
  20
594.35895
  0
VERTEX
  5
662
  8
Layer_0
  10
812.91229
  20
594.06049
  0
VERTEX
  5
663
  8
Layer_0
  10
812.88
  20
593.74005
  0
SEQEND
  0
POLYLINE
  5
665
  8
Layer_0
  62
0
  70
1
  66
1
  10
0
  20
0
  30
0
  0
VERTEX
  5
665
  8
Layer_0
  10
657.94
  20
436.26007
  0
VERTEX
  5
666
  8
Layer_0
  10
657.97235
  20
435.93964
  0
VERTEX
  5
667
  8
Layer_0
  10
658.06494
  20
435.64117
  0
VERTEX
  5
668
  8
Layer_0
  10
658.21155
  20
435.37106
  0
VERTEX
  5
669
  8
Layer_0
  10
658.40564
  20
435.13574
  0
VERTEX
  5
66a
  8
Layer_0
  10
658.64099
  20
434.94159
  0
VERTEX
  5
66b
  8
Layer_0
  10
658.91113
  20
434.79498
  0
VERTEX
  5
66c
  8
Layer_0
  10
659.20959
  20
434.70239
  0
VERTEX
  5
66d
  8
Layer_0
  10
659.53003
  20
434.67007
  0
VERTEX
  5
66e
  8
Layer_0
  10
659.85046
  20
434.70239
  0
VERTEX
  5
66f
  8
Layer_0
  10
660.14893
  20
434.79498
  0
VERTEX
  5
670
  8
Layer_0
  10
660.41901
  20
434.94159
  0
VERTEX
  5
671
  8
Layer_0
  10
660.6543
  20
435.13574
  0
VERTEX
  5
672
  8
Layer_0
  10
660.84839
  20
435.37106
  0
VERTEX
  5
673
  8
Layer_0
  10
660.995
  20
435.64117
  0
VERTEX
  5
674
  8
Layer_0
  10
661.08771
  20
435.93964
  0
VERTEX
  5
675
  8
Layer_0
  10
661.12
  20
436.26007
  0
VERTEX
  5
676
  8
Layer_0
  10
661.08771
  20
436.58051
  0
VERTEX
  5
677
  8
Layer_0
  10
660.995
  20
436.87897
  0
VERTEX
  5
678
  8
Layer_0
  10
660.84839
  20
437.14908
  0
VERTEX
  5
679
  8
Layer_0
  10
660.6543
  20
437.3844
  0
VERTEX
  5
67a
  8
Layer_0
  10
660.41901
  20
437.57855
  0
VERTEX
  5
67b
  8
Layer_0
  10
660.14893
  20
437.72516
  0
VERTEX
  5
67c
  8
Layer_0
  10
659.85046
  20
437.81775
  0
VERTEX
  5
67d
  8
Layer_0
  10
659.53003
  20
437.85007
  0
VERTEX
  5
67e
  8
Layer_0
  10
659.20959
  20
437.81775
  0
VERTEX
  5
67f
  8
Layer_0
  10
658.91113
  20
437.72516
  0
VERTEX
  5
680
  8
Layer_0
  10
658.64099
  20
437.57855
  0
VERTEX
  5
681
  8
Layer_0
  10
658.40564
  20
437.3844
  0
VERTEX
  5
682
  8
Layer_0
  10
658.21155
  20
437.14908
  0
VERTEX
  5
683
  8
Layer_0
  10
658.06494
  20
436.87897
  0
VERTEX
  5
684
  8
Layer_0
  10
657.97235
  20
436.58051
  0
VERTEX
  5
685
  8
Layer_0
  10
657.94
  20
436.26007
  0
SEQEND
  0
POLYLINE
  5
687
  8
Layer_0
  62
0
  70
1
  66
1
  10
0
  20
0
  30
0
  0
VERTEX
  5
687
  8
Layer_0
  10
680.80005
  20
593.74011
  0
VERTEX
  5
688
  8
Layer_0
  10
680.83234
  20
593.41968
  0
VERTEX
  5
689
  8
Layer_0
  10
680.92505
  20
593.12122
  0
VERTEX
  5
68a
  8
Layer_0
  10
681.07166
  20
592.85114
  0
VERTEX
  5
68b
  8
Layer_0
  10
681.26575
  20
592.61584
  0
VERTEX
  5
68c
  8
Layer_0
  10
681.50104
  20
592.42169
  0
VERTEX
  5
68d
  8
Layer_0
  10
681.77112
  20
592.27509
  0
VERTEX
  5
68e
  8
Layer_0
  10
682.06958
  20
592.18243
  0
VERTEX
  5
68f
  8
Layer_0
  10
682.39001
  20
592.15015
  0
VERTEX
  5
690
  8
Layer_0
  10
682.71045
  20
592.18243
  0
VERTEX
  5
691
  8
Layer_0
  10
683.00891
  20
592.27509
  0
VERTEX
  5
692
  8
Layer_0
  10
683.27899
  20
592.42169
  0
VERTEX
  5
693
  8
Layer_0
  10
683.51428
  20
592.61584
  0
VERTEX
  5
694
  8
Layer_0
  10
683.70837
  20
592.85114
  0
VERTEX
  5
695
  8
Layer_0
  10
683.85498
  20
593.12122
  0
VERTEX
  5
696
  8
Layer_0
  10
683.94769
  20
593.41968
  0
VERTEX
  5
697
  8
Layer_0
  10
683.97998
  20
593.74011
  0
VERTEX
  5
698
  8
Layer_0
  10
683.94769
  20
594.06055
  0
VERTEX
  5
699
  8
Layer_0
  10
683.85498
  20
594.35901
  0
VERTEX
  5
69a
  8
Layer_0
  10
683.70837
  20
594.62909
  0
VERTEX
  5
69b
  8
Layer_0
  10
683.51428
  20
594.86438
  0
VERTEX
  5
69c
  8
Layer_0
  10
683.27899
  20
595.05853
  0
VERTEX
  5
69d
  8
Layer_0
  10
683.00891
  20
595.20514
  0
VERTEX
  5
69e
  8
Layer_0
  10
682.71045
  20
595.29779
  0
VERTEX
  5
69f
  8
Layer_0
  10
682.39001
  20
595.33008
  0
VERTEX
  5
6a0
  8
Layer_0
  10
682.06958
  20
595.29779
  0
VERTEX
  5
6a1
  8
Layer_0
  10
681.77112
  20
595.20514
  0
VERTEX
  5
6a2
  8
Layer_0
  10
681.50104
  20
595.05853
  0
VERTEX
  5
6a3
  8
Layer_0
  10
681.26575
  20
594.86438
  0
VERTEX
  5
6a4
  8
Layer_0
  10
681.07166
  20
594.62909
  0
VERTEX
  5
6a5
  8
Layer_0
  10
680.92505
  20
594.35901
  0
VERTEX
  5
6a6
  8
Layer_0
  10
680.83234
  20
594.06055
  0
VERTEX
  5
6a7
  8
Layer_0
  10
680.80005
  20
593.74011
  0
SEQEND
  0
POLYLINE
  5
6a9
  8
Layer_0
  62
0
  70
1
  66
1
  10
0
  20
0
  30
0
  0
VERTEX
  5
6a9
  8
Layer_0
  10
812.88
  20
436.2601
  0
VERTEX
  5
6aa
  8
Layer_0
  10
812.91229
  20
435.93967
  0
VERTEX
  5
6ab
  8
Layer_0
  10
813.00488
  20
435.6412
  0
VERTEX
  5
6ac
  8
Layer_0
  10
813.15149
  20
435.37109
  0
VERTEX
  5
6ad
  8
Layer_0
  10
813.3457
  20
435.1358
  0
VERTEX
  5
6ae
  8
Layer_0
  10
813.58099
  20
434.94165
  0
VERTEX
  5
6af
  8
Layer_0
  10
813.85107
  20
434.79504
  0
VERTEX
  5
6b0
  8
Layer_0
  10
814.14954
  20
434.70239
  0
VERTEX
  5
6b1
  8
Layer_0
  10
814.46997
  20
434.6701
  0
VERTEX
  5
6b2
  8
Layer_0
  10
814.79041
  20
434.70239
  0
VERTEX
  5
6b3
  8
Layer_0
  10
815.08887
  20
434.79504
  0
VERTEX
  5
6b4
  8
Layer_0
  10
815.35901
  20
434.94165
  0
VERTEX
  5
6b5
  8
Layer_0
  10
815.5943
  20
435.1358
  0
VERTEX
  5
6b6
  8
Layer_0
  10
815.78845
  20
435.37109
  0
VERTEX
  5
6b7
  8
Layer_0
  10
815.93506
  20
435.6412
  0
VERTEX
  5
6b8
  8
Layer_0
  10
816.02771
  20
435.93967
  0
VERTEX
  5
6b9
  8
Layer_0
  10
816.06
  20
436.2601
  0
VERTEX
  5
6ba
  8
Layer_0
  10
816.02771
  20
436.58054
  0
VERTEX
  5
6bb
  8
Layer_0
  10
815.93506
  20
436.879
  0
VERTEX
  5
6bc
  8
Layer_0
  10
815.78845
  20
437.14911
  0
VERTEX
  5
6bd
  8
Layer_0
  10
815.5943
  20
437.3844
  0
VERTEX
  5
6be
  8
Layer_0
  10
815.35901
  20
437.57855
  0
VERTEX
  5
6bf
  8
Layer_0
  10
815.08887
  20
437.72516
  0
VERTEX
  5
6c0
  8
Layer_0
  10
814.79041
  20
437.81781
  0
VERTEX
  5
6c1
  8
Layer_0
  10
814.46997
  20
437.8501
  0
VERTEX
  5
6c2
  8
Layer_0
  10
814.14954
  20
437.81781
  0
VERTEX
  5
6c3
  8
Layer_0
  10
813.85107
  20
437.72516
  0
VERTEX
  5
6c4
  8
Layer_0
  10
813.58099
  20
437.57855
  0
VERTEX
  5
6c5
  8
Layer_0
  10
813.3457
  20
437.3844
  0
VERTEX
  5
6c6
  8
Layer_0
  10
813.15149
  20
437.14911
  0
VERTEX
  5
6c7
  8
Layer_0
  10
813.00488
  20
436.879
  0
VERTEX
  5
6c8
  8
Layer_0
  10
812.91229
  20
436.58054
  0
VERTEX
  5
6c9
  8
Layer_0
  10
812.88
  20
436.2601
  0
SEQEND
  0
ENDSEC
  0
EOF
